<mxfile host="Electron" modified="2023-12-17T23:52:32.747Z" agent="Mozilla/5.0 (Windows NT 10.0; Win64; x64) AppleWebKit/537.36 (KHTML, like Gecko) draw.io/22.0.2 Chrome/114.0.5735.289 Electron/25.8.4 Safari/537.36" etag="o22RSvVZxWBaGmijEag4" version="22.0.2" type="device">
  <diagram name="Страница — 1" id="XERnXc_2XhQxD42X1qyP">
    <mxGraphModel dx="2868" dy="1672" grid="1" gridSize="10" guides="1" tooltips="1" connect="1" arrows="1" fold="1" page="1" pageScale="1" pageWidth="2336" pageHeight="1654" math="0" shadow="0">
      <root>
        <mxCell id="0" />
        <mxCell id="1" parent="0" />
        <mxCell id="2PKBjpNm0dXMSzEMXDpb-1" value="advertisement&lt;span style=&quot;font-family:&#39;Times New Roman&#39;;font-size:14pt;color:#000000;mso-style-textfill-fill-color:#000000&quot;&gt;&amp;nbsp;&lt;/span&gt;" style="swimlane;fontStyle=0;childLayout=stackLayout;horizontal=1;startSize=30;horizontalStack=0;resizeParent=1;resizeParentMax=0;resizeLast=0;collapsible=1;marginBottom=0;whiteSpace=wrap;html=1;" vertex="1" parent="1">
          <mxGeometry x="140.14" y="391.86" width="180" height="180" as="geometry" />
        </mxCell>
        <mxCell id="2PKBjpNm0dXMSzEMXDpb-2" value="key ID: uuid" style="text;strokeColor=none;fillColor=none;align=left;verticalAlign=middle;spacingLeft=4;spacingRight=4;overflow=hidden;points=[[0,0.5],[1,0.5]];portConstraint=eastwest;rotatable=0;whiteSpace=wrap;html=1;" vertex="1" parent="2PKBjpNm0dXMSzEMXDpb-1">
          <mxGeometry y="30" width="180" height="30" as="geometry" />
        </mxCell>
        <mxCell id="2PKBjpNm0dXMSzEMXDpb-3" value="ad_name: varchar(100)" style="text;strokeColor=none;fillColor=none;align=left;verticalAlign=middle;spacingLeft=4;spacingRight=4;overflow=hidden;points=[[0,0.5],[1,0.5]];portConstraint=eastwest;rotatable=0;whiteSpace=wrap;html=1;" vertex="1" parent="2PKBjpNm0dXMSzEMXDpb-1">
          <mxGeometry y="60" width="180" height="30" as="geometry" />
        </mxCell>
        <mxCell id="2PKBjpNm0dXMSzEMXDpb-4" value="start_date: timestamp" style="text;strokeColor=none;fillColor=none;align=left;verticalAlign=middle;spacingLeft=4;spacingRight=4;overflow=hidden;points=[[0,0.5],[1,0.5]];portConstraint=eastwest;rotatable=0;whiteSpace=wrap;html=1;" vertex="1" parent="2PKBjpNm0dXMSzEMXDpb-1">
          <mxGeometry y="90" width="180" height="30" as="geometry" />
        </mxCell>
        <mxCell id="2PKBjpNm0dXMSzEMXDpb-116" value="end_date: timestamp" style="text;strokeColor=none;fillColor=none;align=left;verticalAlign=middle;spacingLeft=4;spacingRight=4;overflow=hidden;points=[[0,0.5],[1,0.5]];portConstraint=eastwest;rotatable=0;whiteSpace=wrap;html=1;" vertex="1" parent="2PKBjpNm0dXMSzEMXDpb-1">
          <mxGeometry y="120" width="180" height="30" as="geometry" />
        </mxCell>
        <mxCell id="2PKBjpNm0dXMSzEMXDpb-117" value="cost: decimal(5,2)" style="text;strokeColor=none;fillColor=none;align=left;verticalAlign=middle;spacingLeft=4;spacingRight=4;overflow=hidden;points=[[0,0.5],[1,0.5]];portConstraint=eastwest;rotatable=0;whiteSpace=wrap;html=1;" vertex="1" parent="2PKBjpNm0dXMSzEMXDpb-1">
          <mxGeometry y="150" width="180" height="30" as="geometry" />
        </mxCell>
        <mxCell id="2PKBjpNm0dXMSzEMXDpb-5" value="album&lt;span style=&quot;font-family:&#39;Times New Roman&#39;;font-size:14pt;color:#000000;mso-style-textfill-fill-color:#000000&quot;&gt;&amp;nbsp;&lt;/span&gt;" style="swimlane;fontStyle=0;childLayout=stackLayout;horizontal=1;startSize=30;horizontalStack=0;resizeParent=1;resizeParentMax=0;resizeLast=0;collapsible=1;marginBottom=0;whiteSpace=wrap;html=1;" vertex="1" parent="1">
          <mxGeometry x="140.14" y="1291.8600000000001" width="180" height="120" as="geometry" />
        </mxCell>
        <mxCell id="2PKBjpNm0dXMSzEMXDpb-6" value="key ID: uuid" style="text;strokeColor=none;fillColor=none;align=left;verticalAlign=middle;spacingLeft=4;spacingRight=4;overflow=hidden;points=[[0,0.5],[1,0.5]];portConstraint=eastwest;rotatable=0;whiteSpace=wrap;html=1;" vertex="1" parent="2PKBjpNm0dXMSzEMXDpb-5">
          <mxGeometry y="30" width="180" height="30" as="geometry" />
        </mxCell>
        <mxCell id="2PKBjpNm0dXMSzEMXDpb-7" value="title: varchar(100)" style="text;strokeColor=none;fillColor=none;align=left;verticalAlign=middle;spacingLeft=4;spacingRight=4;overflow=hidden;points=[[0,0.5],[1,0.5]];portConstraint=eastwest;rotatable=0;whiteSpace=wrap;html=1;" vertex="1" parent="2PKBjpNm0dXMSzEMXDpb-5">
          <mxGeometry y="60" width="180" height="30" as="geometry" />
        </mxCell>
        <mxCell id="2PKBjpNm0dXMSzEMXDpb-8" value="#artist_id: uuid" style="text;strokeColor=none;fillColor=none;align=left;verticalAlign=middle;spacingLeft=4;spacingRight=4;overflow=hidden;points=[[0,0.5],[1,0.5]];portConstraint=eastwest;rotatable=0;whiteSpace=wrap;html=1;" vertex="1" parent="2PKBjpNm0dXMSzEMXDpb-5">
          <mxGeometry y="90" width="180" height="30" as="geometry" />
        </mxCell>
        <mxCell id="2PKBjpNm0dXMSzEMXDpb-9" value="artist&lt;span style=&quot;font-family:&#39;Times New Roman&#39;;font-size:14pt;color:#000000;mso-style-textfill-fill-color:#000000&quot;&gt;&amp;nbsp;&lt;/span&gt;" style="swimlane;fontStyle=0;childLayout=stackLayout;horizontal=1;startSize=30;horizontalStack=0;resizeParent=1;resizeParentMax=0;resizeLast=0;collapsible=1;marginBottom=0;whiteSpace=wrap;html=1;" vertex="1" parent="1">
          <mxGeometry x="140.14" y="1096.8600000000001" width="182" height="180" as="geometry" />
        </mxCell>
        <mxCell id="2PKBjpNm0dXMSzEMXDpb-10" value="key ID: uuid" style="text;strokeColor=none;fillColor=none;align=left;verticalAlign=middle;spacingLeft=4;spacingRight=4;overflow=hidden;points=[[0,0.5],[1,0.5]];portConstraint=eastwest;rotatable=0;whiteSpace=wrap;html=1;" vertex="1" parent="2PKBjpNm0dXMSzEMXDpb-9">
          <mxGeometry y="30" width="182" height="30" as="geometry" />
        </mxCell>
        <mxCell id="2PKBjpNm0dXMSzEMXDpb-11" value="name: varchar(100)" style="text;strokeColor=none;fillColor=none;align=left;verticalAlign=middle;spacingLeft=4;spacingRight=4;overflow=hidden;points=[[0,0.5],[1,0.5]];portConstraint=eastwest;rotatable=0;whiteSpace=wrap;html=1;" vertex="1" parent="2PKBjpNm0dXMSzEMXDpb-9">
          <mxGeometry y="60" width="182" height="30" as="geometry" />
        </mxCell>
        <mxCell id="2PKBjpNm0dXMSzEMXDpb-12" value="#genre_id: uuid" style="text;strokeColor=none;fillColor=none;align=left;verticalAlign=middle;spacingLeft=4;spacingRight=4;overflow=hidden;points=[[0,0.5],[1,0.5]];portConstraint=eastwest;rotatable=0;whiteSpace=wrap;html=1;" vertex="1" parent="2PKBjpNm0dXMSzEMXDpb-9">
          <mxGeometry y="90" width="182" height="30" as="geometry" />
        </mxCell>
        <mxCell id="2PKBjpNm0dXMSzEMXDpb-105" value="biography: text" style="text;strokeColor=none;fillColor=none;align=left;verticalAlign=middle;spacingLeft=4;spacingRight=4;overflow=hidden;points=[[0,0.5],[1,0.5]];portConstraint=eastwest;rotatable=0;whiteSpace=wrap;html=1;" vertex="1" parent="2PKBjpNm0dXMSzEMXDpb-9">
          <mxGeometry y="120" width="182" height="30" as="geometry" />
        </mxCell>
        <mxCell id="2PKBjpNm0dXMSzEMXDpb-264" value="subscriber_count: int" style="text;strokeColor=none;fillColor=none;align=left;verticalAlign=middle;spacingLeft=4;spacingRight=4;overflow=hidden;points=[[0,0.5],[1,0.5]];portConstraint=eastwest;rotatable=0;whiteSpace=wrap;html=1;" vertex="1" parent="2PKBjpNm0dXMSzEMXDpb-9">
          <mxGeometry y="150" width="182" height="30" as="geometry" />
        </mxCell>
        <mxCell id="2PKBjpNm0dXMSzEMXDpb-13" value="chart&lt;span style=&quot;font-family:&#39;Times New Roman&#39;;font-size:14pt;color:#000000;mso-style-textfill-fill-color:#000000&quot;&gt;&amp;nbsp;&lt;/span&gt;" style="swimlane;fontStyle=0;childLayout=stackLayout;horizontal=1;startSize=30;horizontalStack=0;resizeParent=1;resizeParentMax=0;resizeLast=0;collapsible=1;marginBottom=0;whiteSpace=wrap;html=1;" vertex="1" parent="1">
          <mxGeometry x="570.14" y="391.86" width="180" height="120" as="geometry" />
        </mxCell>
        <mxCell id="2PKBjpNm0dXMSzEMXDpb-14" value="key ID: uuid" style="text;strokeColor=none;fillColor=none;align=left;verticalAlign=middle;spacingLeft=4;spacingRight=4;overflow=hidden;points=[[0,0.5],[1,0.5]];portConstraint=eastwest;rotatable=0;whiteSpace=wrap;html=1;" vertex="1" parent="2PKBjpNm0dXMSzEMXDpb-13">
          <mxGeometry y="30" width="180" height="30" as="geometry" />
        </mxCell>
        <mxCell id="2PKBjpNm0dXMSzEMXDpb-15" value="name: varchar(100)" style="text;strokeColor=none;fillColor=none;align=left;verticalAlign=middle;spacingLeft=4;spacingRight=4;overflow=hidden;points=[[0,0.5],[1,0.5]];portConstraint=eastwest;rotatable=0;whiteSpace=wrap;html=1;" vertex="1" parent="2PKBjpNm0dXMSzEMXDpb-13">
          <mxGeometry y="60" width="180" height="30" as="geometry" />
        </mxCell>
        <mxCell id="2PKBjpNm0dXMSzEMXDpb-16" value="creation_date: timestamp" style="text;strokeColor=none;fillColor=none;align=left;verticalAlign=middle;spacingLeft=4;spacingRight=4;overflow=hidden;points=[[0,0.5],[1,0.5]];portConstraint=eastwest;rotatable=0;whiteSpace=wrap;html=1;" vertex="1" parent="2PKBjpNm0dXMSzEMXDpb-13">
          <mxGeometry y="90" width="180" height="30" as="geometry" />
        </mxCell>
        <mxCell id="2PKBjpNm0dXMSzEMXDpb-17" value="events&lt;span style=&quot;font-family:&#39;Times New Roman&#39;;font-size:14pt;color:#000000;mso-style-textfill-fill-color:#000000&quot;&gt;&amp;nbsp;&lt;/span&gt;" style="swimlane;fontStyle=0;childLayout=stackLayout;horizontal=1;startSize=30;horizontalStack=0;resizeParent=1;resizeParentMax=0;resizeLast=0;collapsible=1;marginBottom=0;whiteSpace=wrap;html=1;" vertex="1" parent="1">
          <mxGeometry x="140.14" y="221.86" width="180" height="150" as="geometry" />
        </mxCell>
        <mxCell id="2PKBjpNm0dXMSzEMXDpb-18" value="key ID: uuid" style="text;strokeColor=none;fillColor=none;align=left;verticalAlign=middle;spacingLeft=4;spacingRight=4;overflow=hidden;points=[[0,0.5],[1,0.5]];portConstraint=eastwest;rotatable=0;whiteSpace=wrap;html=1;" vertex="1" parent="2PKBjpNm0dXMSzEMXDpb-17">
          <mxGeometry y="30" width="180" height="30" as="geometry" />
        </mxCell>
        <mxCell id="2PKBjpNm0dXMSzEMXDpb-19" value="name: varchar(100)" style="text;strokeColor=none;fillColor=none;align=left;verticalAlign=middle;spacingLeft=4;spacingRight=4;overflow=hidden;points=[[0,0.5],[1,0.5]];portConstraint=eastwest;rotatable=0;whiteSpace=wrap;html=1;" vertex="1" parent="2PKBjpNm0dXMSzEMXDpb-17">
          <mxGeometry y="60" width="180" height="30" as="geometry" />
        </mxCell>
        <mxCell id="2PKBjpNm0dXMSzEMXDpb-20" value="location: varchar(100)" style="text;strokeColor=none;fillColor=none;align=left;verticalAlign=middle;spacingLeft=4;spacingRight=4;overflow=hidden;points=[[0,0.5],[1,0.5]];portConstraint=eastwest;rotatable=0;whiteSpace=wrap;html=1;" vertex="1" parent="2PKBjpNm0dXMSzEMXDpb-17">
          <mxGeometry y="90" width="180" height="30" as="geometry" />
        </mxCell>
        <mxCell id="2PKBjpNm0dXMSzEMXDpb-123" value="event_date: timestamp" style="text;strokeColor=none;fillColor=none;align=left;verticalAlign=middle;spacingLeft=4;spacingRight=4;overflow=hidden;points=[[0,0.5],[1,0.5]];portConstraint=eastwest;rotatable=0;whiteSpace=wrap;html=1;" vertex="1" parent="2PKBjpNm0dXMSzEMXDpb-17">
          <mxGeometry y="120" width="180" height="30" as="geometry" />
        </mxCell>
        <mxCell id="2PKBjpNm0dXMSzEMXDpb-21" value="gift_cards_and_codes" style="swimlane;fontStyle=0;childLayout=stackLayout;horizontal=1;startSize=30;horizontalStack=0;resizeParent=1;resizeParentMax=0;resizeLast=0;collapsible=1;marginBottom=0;whiteSpace=wrap;html=1;" vertex="1" parent="1">
          <mxGeometry x="140.14" y="586.86" width="180" height="150" as="geometry" />
        </mxCell>
        <mxCell id="2PKBjpNm0dXMSzEMXDpb-22" value="key ID: uuid" style="text;strokeColor=none;fillColor=none;align=left;verticalAlign=middle;spacingLeft=4;spacingRight=4;overflow=hidden;points=[[0,0.5],[1,0.5]];portConstraint=eastwest;rotatable=0;whiteSpace=wrap;html=1;" vertex="1" parent="2PKBjpNm0dXMSzEMXDpb-21">
          <mxGeometry y="30" width="180" height="30" as="geometry" />
        </mxCell>
        <mxCell id="2PKBjpNm0dXMSzEMXDpb-23" value="code: varchar(50)" style="text;strokeColor=none;fillColor=none;align=left;verticalAlign=middle;spacingLeft=4;spacingRight=4;overflow=hidden;points=[[0,0.5],[1,0.5]];portConstraint=eastwest;rotatable=0;whiteSpace=wrap;html=1;" vertex="1" parent="2PKBjpNm0dXMSzEMXDpb-21">
          <mxGeometry y="60" width="180" height="30" as="geometry" />
        </mxCell>
        <mxCell id="2PKBjpNm0dXMSzEMXDpb-130" value="value: decimal(5,2)" style="text;strokeColor=none;fillColor=none;align=left;verticalAlign=middle;spacingLeft=4;spacingRight=4;overflow=hidden;points=[[0,0.5],[1,0.5]];portConstraint=eastwest;rotatable=0;whiteSpace=wrap;html=1;" vertex="1" parent="2PKBjpNm0dXMSzEMXDpb-21">
          <mxGeometry y="90" width="180" height="30" as="geometry" />
        </mxCell>
        <mxCell id="2PKBjpNm0dXMSzEMXDpb-24" value="expiration_date: timestamp" style="text;strokeColor=none;fillColor=none;align=left;verticalAlign=middle;spacingLeft=4;spacingRight=4;overflow=hidden;points=[[0,0.5],[1,0.5]];portConstraint=eastwest;rotatable=0;whiteSpace=wrap;html=1;" vertex="1" parent="2PKBjpNm0dXMSzEMXDpb-21">
          <mxGeometry y="120" width="180" height="30" as="geometry" />
        </mxCell>
        <mxCell id="2PKBjpNm0dXMSzEMXDpb-25" value="&amp;nbsp;listening_history" style="swimlane;fontStyle=0;childLayout=stackLayout;horizontal=1;startSize=30;horizontalStack=0;resizeParent=1;resizeParentMax=0;resizeLast=0;collapsible=1;marginBottom=0;whiteSpace=wrap;html=1;" vertex="1" parent="1">
          <mxGeometry x="1160.1399999999999" y="421.86" width="200" height="150" as="geometry" />
        </mxCell>
        <mxCell id="2PKBjpNm0dXMSzEMXDpb-26" value="key ID: uuid" style="text;strokeColor=none;fillColor=none;align=left;verticalAlign=middle;spacingLeft=4;spacingRight=4;overflow=hidden;points=[[0,0.5],[1,0.5]];portConstraint=eastwest;rotatable=0;whiteSpace=wrap;html=1;" vertex="1" parent="2PKBjpNm0dXMSzEMXDpb-25">
          <mxGeometry y="30" width="200" height="30" as="geometry" />
        </mxCell>
        <mxCell id="2PKBjpNm0dXMSzEMXDpb-27" value="#user_id: uuid" style="text;strokeColor=none;fillColor=none;align=left;verticalAlign=middle;spacingLeft=4;spacingRight=4;overflow=hidden;points=[[0,0.5],[1,0.5]];portConstraint=eastwest;rotatable=0;whiteSpace=wrap;html=1;" vertex="1" parent="2PKBjpNm0dXMSzEMXDpb-25">
          <mxGeometry y="60" width="200" height="30" as="geometry" />
        </mxCell>
        <mxCell id="2PKBjpNm0dXMSzEMXDpb-28" value="#track_id: uuid" style="text;strokeColor=none;fillColor=none;align=left;verticalAlign=middle;spacingLeft=4;spacingRight=4;overflow=hidden;points=[[0,0.5],[1,0.5]];portConstraint=eastwest;rotatable=0;whiteSpace=wrap;html=1;" vertex="1" parent="2PKBjpNm0dXMSzEMXDpb-25">
          <mxGeometry y="90" width="200" height="30" as="geometry" />
        </mxCell>
        <mxCell id="2PKBjpNm0dXMSzEMXDpb-109" value="listening_date: timestamp" style="text;strokeColor=none;fillColor=none;align=left;verticalAlign=middle;spacingLeft=4;spacingRight=4;overflow=hidden;points=[[0,0.5],[1,0.5]];portConstraint=eastwest;rotatable=0;whiteSpace=wrap;html=1;" vertex="1" parent="2PKBjpNm0dXMSzEMXDpb-25">
          <mxGeometry y="120" width="200" height="30" as="geometry" />
        </mxCell>
        <mxCell id="2PKBjpNm0dXMSzEMXDpb-29" value="listening_statistics" style="swimlane;fontStyle=0;childLayout=stackLayout;horizontal=1;startSize=30;horizontalStack=0;resizeParent=1;resizeParentMax=0;resizeLast=0;collapsible=1;marginBottom=0;whiteSpace=wrap;html=1;" vertex="1" parent="1">
          <mxGeometry x="1160.1399999999999" y="931.86" width="200" height="150" as="geometry" />
        </mxCell>
        <mxCell id="2PKBjpNm0dXMSzEMXDpb-30" value="key ID: uuid" style="text;strokeColor=none;fillColor=none;align=left;verticalAlign=middle;spacingLeft=4;spacingRight=4;overflow=hidden;points=[[0,0.5],[1,0.5]];portConstraint=eastwest;rotatable=0;whiteSpace=wrap;html=1;" vertex="1" parent="2PKBjpNm0dXMSzEMXDpb-29">
          <mxGeometry y="30" width="200" height="30" as="geometry" />
        </mxCell>
        <mxCell id="2PKBjpNm0dXMSzEMXDpb-118" value="#user_id: uuid" style="text;strokeColor=none;fillColor=none;align=left;verticalAlign=middle;spacingLeft=4;spacingRight=4;overflow=hidden;points=[[0,0.5],[1,0.5]];portConstraint=eastwest;rotatable=0;whiteSpace=wrap;html=1;" vertex="1" parent="2PKBjpNm0dXMSzEMXDpb-29">
          <mxGeometry y="60" width="200" height="30" as="geometry" />
        </mxCell>
        <mxCell id="2PKBjpNm0dXMSzEMXDpb-119" value="#track_id: uuid" style="text;strokeColor=none;fillColor=none;align=left;verticalAlign=middle;spacingLeft=4;spacingRight=4;overflow=hidden;points=[[0,0.5],[1,0.5]];portConstraint=eastwest;rotatable=0;whiteSpace=wrap;html=1;" vertex="1" parent="2PKBjpNm0dXMSzEMXDpb-29">
          <mxGeometry y="90" width="200" height="30" as="geometry" />
        </mxCell>
        <mxCell id="2PKBjpNm0dXMSzEMXDpb-32" value="listen_count: int" style="text;strokeColor=none;fillColor=none;align=left;verticalAlign=middle;spacingLeft=4;spacingRight=4;overflow=hidden;points=[[0,0.5],[1,0.5]];portConstraint=eastwest;rotatable=0;whiteSpace=wrap;html=1;" vertex="1" parent="2PKBjpNm0dXMSzEMXDpb-29">
          <mxGeometry y="120" width="200" height="30" as="geometry" />
        </mxCell>
        <mxCell id="2PKBjpNm0dXMSzEMXDpb-33" value="genre&lt;span style=&quot;font-family:&#39;Times New Roman&#39;;font-size:14pt;color:#000000;mso-style-textfill-fill-color:#000000&quot;&gt;&amp;nbsp;&lt;/span&gt;" style="swimlane;fontStyle=0;childLayout=stackLayout;horizontal=1;startSize=30;horizontalStack=0;resizeParent=1;resizeParentMax=0;resizeLast=0;collapsible=1;marginBottom=0;whiteSpace=wrap;html=1;" vertex="1" parent="1">
          <mxGeometry x="570.14" y="901.86" width="182" height="90" as="geometry" />
        </mxCell>
        <mxCell id="2PKBjpNm0dXMSzEMXDpb-34" value="key ID: uuid" style="text;strokeColor=none;fillColor=none;align=left;verticalAlign=middle;spacingLeft=4;spacingRight=4;overflow=hidden;points=[[0,0.5],[1,0.5]];portConstraint=eastwest;rotatable=0;whiteSpace=wrap;html=1;" vertex="1" parent="2PKBjpNm0dXMSzEMXDpb-33">
          <mxGeometry y="30" width="182" height="30" as="geometry" />
        </mxCell>
        <mxCell id="2PKBjpNm0dXMSzEMXDpb-35" value="title: varchar(50)" style="text;strokeColor=none;fillColor=none;align=left;verticalAlign=middle;spacingLeft=4;spacingRight=4;overflow=hidden;points=[[0,0.5],[1,0.5]];portConstraint=eastwest;rotatable=0;whiteSpace=wrap;html=1;" vertex="1" parent="2PKBjpNm0dXMSzEMXDpb-33">
          <mxGeometry y="60" width="182" height="30" as="geometry" />
        </mxCell>
        <mxCell id="2PKBjpNm0dXMSzEMXDpb-37" value="content_rights" style="swimlane;fontStyle=0;childLayout=stackLayout;horizontal=1;startSize=30;horizontalStack=0;resizeParent=1;resizeParentMax=0;resizeLast=0;collapsible=1;marginBottom=0;whiteSpace=wrap;html=1;" vertex="1" parent="1">
          <mxGeometry x="570.14" y="531.86" width="180" height="210" as="geometry" />
        </mxCell>
        <mxCell id="2PKBjpNm0dXMSzEMXDpb-38" value="key ID: uuid" style="text;strokeColor=none;fillColor=none;align=left;verticalAlign=middle;spacingLeft=4;spacingRight=4;overflow=hidden;points=[[0,0.5],[1,0.5]];portConstraint=eastwest;rotatable=0;whiteSpace=wrap;html=1;" vertex="1" parent="2PKBjpNm0dXMSzEMXDpb-37">
          <mxGeometry y="30" width="180" height="30" as="geometry" />
        </mxCell>
        <mxCell id="2PKBjpNm0dXMSzEMXDpb-39" value="#track_id: uuid" style="text;strokeColor=none;fillColor=none;align=left;verticalAlign=middle;spacingLeft=4;spacingRight=4;overflow=hidden;points=[[0,0.5],[1,0.5]];portConstraint=eastwest;rotatable=0;whiteSpace=wrap;html=1;" vertex="1" parent="2PKBjpNm0dXMSzEMXDpb-37">
          <mxGeometry y="60" width="180" height="30" as="geometry" />
        </mxCell>
        <mxCell id="2PKBjpNm0dXMSzEMXDpb-113" value="rights_holder: varchar(100)" style="text;strokeColor=none;fillColor=none;align=left;verticalAlign=middle;spacingLeft=4;spacingRight=4;overflow=hidden;points=[[0,0.5],[1,0.5]];portConstraint=eastwest;rotatable=0;whiteSpace=wrap;html=1;" vertex="1" parent="2PKBjpNm0dXMSzEMXDpb-37">
          <mxGeometry y="90" width="180" height="30" as="geometry" />
        </mxCell>
        <mxCell id="2PKBjpNm0dXMSzEMXDpb-114" value="rights_type: varchar(50)" style="text;strokeColor=none;fillColor=none;align=left;verticalAlign=middle;spacingLeft=4;spacingRight=4;overflow=hidden;points=[[0,0.5],[1,0.5]];portConstraint=eastwest;rotatable=0;whiteSpace=wrap;html=1;" vertex="1" parent="2PKBjpNm0dXMSzEMXDpb-37">
          <mxGeometry y="120" width="180" height="30" as="geometry" />
        </mxCell>
        <mxCell id="2PKBjpNm0dXMSzEMXDpb-115" value="start_date: timestamp" style="text;strokeColor=none;fillColor=none;align=left;verticalAlign=middle;spacingLeft=4;spacingRight=4;overflow=hidden;points=[[0,0.5],[1,0.5]];portConstraint=eastwest;rotatable=0;whiteSpace=wrap;html=1;" vertex="1" parent="2PKBjpNm0dXMSzEMXDpb-37">
          <mxGeometry y="150" width="180" height="30" as="geometry" />
        </mxCell>
        <mxCell id="2PKBjpNm0dXMSzEMXDpb-40" value="end_date: timestamp" style="text;strokeColor=none;fillColor=none;align=left;verticalAlign=middle;spacingLeft=4;spacingRight=4;overflow=hidden;points=[[0,0.5],[1,0.5]];portConstraint=eastwest;rotatable=0;whiteSpace=wrap;html=1;" vertex="1" parent="2PKBjpNm0dXMSzEMXDpb-37">
          <mxGeometry y="180" width="180" height="30" as="geometry" />
        </mxCell>
        <mxCell id="2PKBjpNm0dXMSzEMXDpb-41" value="notifications" style="swimlane;fontStyle=0;childLayout=stackLayout;horizontal=1;startSize=30;horizontalStack=0;resizeParent=1;resizeParentMax=0;resizeLast=0;collapsible=1;marginBottom=0;whiteSpace=wrap;html=1;" vertex="1" parent="1">
          <mxGeometry x="1750.1399999999999" y="846.86" width="160" height="150" as="geometry" />
        </mxCell>
        <mxCell id="2PKBjpNm0dXMSzEMXDpb-42" value="key ID: uuid" style="text;strokeColor=none;fillColor=none;align=left;verticalAlign=middle;spacingLeft=4;spacingRight=4;overflow=hidden;points=[[0,0.5],[1,0.5]];portConstraint=eastwest;rotatable=0;whiteSpace=wrap;html=1;" vertex="1" parent="2PKBjpNm0dXMSzEMXDpb-41">
          <mxGeometry y="30" width="160" height="30" as="geometry" />
        </mxCell>
        <mxCell id="2PKBjpNm0dXMSzEMXDpb-128" value="#user_id: uuid" style="text;strokeColor=none;fillColor=none;align=left;verticalAlign=middle;spacingLeft=4;spacingRight=4;overflow=hidden;points=[[0,0.5],[1,0.5]];portConstraint=eastwest;rotatable=0;whiteSpace=wrap;html=1;" vertex="1" parent="2PKBjpNm0dXMSzEMXDpb-41">
          <mxGeometry y="60" width="160" height="30" as="geometry" />
        </mxCell>
        <mxCell id="2PKBjpNm0dXMSzEMXDpb-43" value="notification_text: text" style="text;strokeColor=none;fillColor=none;align=left;verticalAlign=middle;spacingLeft=4;spacingRight=4;overflow=hidden;points=[[0,0.5],[1,0.5]];portConstraint=eastwest;rotatable=0;whiteSpace=wrap;html=1;" vertex="1" parent="2PKBjpNm0dXMSzEMXDpb-41">
          <mxGeometry y="90" width="160" height="30" as="geometry" />
        </mxCell>
        <mxCell id="2PKBjpNm0dXMSzEMXDpb-44" value="notification_date: timestamp" style="text;strokeColor=none;fillColor=none;align=left;verticalAlign=middle;spacingLeft=4;spacingRight=4;overflow=hidden;points=[[0,0.5],[1,0.5]];portConstraint=eastwest;rotatable=0;whiteSpace=wrap;html=1;" vertex="1" parent="2PKBjpNm0dXMSzEMXDpb-41">
          <mxGeometry y="120" width="160" height="30" as="geometry" />
        </mxCell>
        <mxCell id="2PKBjpNm0dXMSzEMXDpb-45" value="user_settings" style="swimlane;fontStyle=0;childLayout=stackLayout;horizontal=1;startSize=30;horizontalStack=0;resizeParent=1;resizeParentMax=0;resizeLast=0;collapsible=1;marginBottom=0;whiteSpace=wrap;html=1;" vertex="1" parent="1">
          <mxGeometry x="2120.14" y="1151.8600000000001" width="170" height="150" as="geometry" />
        </mxCell>
        <mxCell id="2PKBjpNm0dXMSzEMXDpb-46" value="key ID: uuid" style="text;strokeColor=none;fillColor=none;align=left;verticalAlign=middle;spacingLeft=4;spacingRight=4;overflow=hidden;points=[[0,0.5],[1,0.5]];portConstraint=eastwest;rotatable=0;whiteSpace=wrap;html=1;" vertex="1" parent="2PKBjpNm0dXMSzEMXDpb-45">
          <mxGeometry y="30" width="170" height="30" as="geometry" />
        </mxCell>
        <mxCell id="2PKBjpNm0dXMSzEMXDpb-125" value="#user_id: uuid" style="text;strokeColor=none;fillColor=none;align=left;verticalAlign=middle;spacingLeft=4;spacingRight=4;overflow=hidden;points=[[0,0.5],[1,0.5]];portConstraint=eastwest;rotatable=0;whiteSpace=wrap;html=1;" vertex="1" parent="2PKBjpNm0dXMSzEMXDpb-45">
          <mxGeometry y="60" width="170" height="30" as="geometry" />
        </mxCell>
        <mxCell id="2PKBjpNm0dXMSzEMXDpb-47" value="music_preferences: text" style="text;strokeColor=none;fillColor=none;align=left;verticalAlign=middle;spacingLeft=4;spacingRight=4;overflow=hidden;points=[[0,0.5],[1,0.5]];portConstraint=eastwest;rotatable=0;whiteSpace=wrap;html=1;" vertex="1" parent="2PKBjpNm0dXMSzEMXDpb-45">
          <mxGeometry y="90" width="170" height="30" as="geometry" />
        </mxCell>
        <mxCell id="2PKBjpNm0dXMSzEMXDpb-48" value="notification_settings: text" style="text;strokeColor=none;fillColor=none;align=left;verticalAlign=middle;spacingLeft=4;spacingRight=4;overflow=hidden;points=[[0,0.5],[1,0.5]];portConstraint=eastwest;rotatable=0;whiteSpace=wrap;html=1;" vertex="1" parent="2PKBjpNm0dXMSzEMXDpb-45">
          <mxGeometry y="120" width="170" height="30" as="geometry" />
        </mxCell>
        <mxCell id="2PKBjpNm0dXMSzEMXDpb-49" value="securityinfo&lt;span style=&quot;font-family:&#39;Times New Roman&#39;;font-size:14pt;color:#000000;mso-style-textfill-fill-color:#000000&quot;&gt;&amp;nbsp;&lt;/span&gt;" style="swimlane;fontStyle=0;childLayout=stackLayout;horizontal=1;startSize=30;horizontalStack=0;resizeParent=1;resizeParentMax=0;resizeLast=0;collapsible=1;marginBottom=0;whiteSpace=wrap;html=1;" vertex="1" parent="1">
          <mxGeometry x="1750.1399999999999" y="476.86" width="160" height="150" as="geometry" />
        </mxCell>
        <mxCell id="2PKBjpNm0dXMSzEMXDpb-50" value="key ID: uuid" style="text;strokeColor=none;fillColor=none;align=left;verticalAlign=middle;spacingLeft=4;spacingRight=4;overflow=hidden;points=[[0,0.5],[1,0.5]];portConstraint=eastwest;rotatable=0;whiteSpace=wrap;html=1;" vertex="1" parent="2PKBjpNm0dXMSzEMXDpb-49">
          <mxGeometry y="30" width="160" height="30" as="geometry" />
        </mxCell>
        <mxCell id="2PKBjpNm0dXMSzEMXDpb-135" value="#user_id: uuid" style="text;strokeColor=none;fillColor=none;align=left;verticalAlign=middle;spacingLeft=4;spacingRight=4;overflow=hidden;points=[[0,0.5],[1,0.5]];portConstraint=eastwest;rotatable=0;whiteSpace=wrap;html=1;" vertex="1" parent="2PKBjpNm0dXMSzEMXDpb-49">
          <mxGeometry y="60" width="160" height="30" as="geometry" />
        </mxCell>
        <mxCell id="2PKBjpNm0dXMSzEMXDpb-51" value="login_data: timestamp" style="text;strokeColor=none;fillColor=none;align=left;verticalAlign=middle;spacingLeft=4;spacingRight=4;overflow=hidden;points=[[0,0.5],[1,0.5]];portConstraint=eastwest;rotatable=0;whiteSpace=wrap;html=1;" vertex="1" parent="2PKBjpNm0dXMSzEMXDpb-49">
          <mxGeometry y="90" width="160" height="30" as="geometry" />
        </mxCell>
        <mxCell id="2PKBjpNm0dXMSzEMXDpb-52" value="login_history: text" style="text;strokeColor=none;fillColor=none;align=left;verticalAlign=middle;spacingLeft=4;spacingRight=4;overflow=hidden;points=[[0,0.5],[1,0.5]];portConstraint=eastwest;rotatable=0;whiteSpace=wrap;html=1;" vertex="1" parent="2PKBjpNm0dXMSzEMXDpb-49">
          <mxGeometry y="120" width="160" height="30" as="geometry" />
        </mxCell>
        <mxCell id="2PKBjpNm0dXMSzEMXDpb-53" value="radio_station" style="swimlane;fontStyle=0;childLayout=stackLayout;horizontal=1;startSize=30;horizontalStack=0;resizeParent=1;resizeParentMax=0;resizeLast=0;collapsible=1;marginBottom=0;whiteSpace=wrap;html=1;" vertex="1" parent="1">
          <mxGeometry x="570.14" y="761.86" width="182" height="120" as="geometry" />
        </mxCell>
        <mxCell id="2PKBjpNm0dXMSzEMXDpb-54" value="key ID: uuid" style="text;strokeColor=none;fillColor=none;align=left;verticalAlign=middle;spacingLeft=4;spacingRight=4;overflow=hidden;points=[[0,0.5],[1,0.5]];portConstraint=eastwest;rotatable=0;whiteSpace=wrap;html=1;" vertex="1" parent="2PKBjpNm0dXMSzEMXDpb-53">
          <mxGeometry y="30" width="182" height="30" as="geometry" />
        </mxCell>
        <mxCell id="2PKBjpNm0dXMSzEMXDpb-55" value="name: varchar(100)" style="text;strokeColor=none;fillColor=none;align=left;verticalAlign=middle;spacingLeft=4;spacingRight=4;overflow=hidden;points=[[0,0.5],[1,0.5]];portConstraint=eastwest;rotatable=0;whiteSpace=wrap;html=1;" vertex="1" parent="2PKBjpNm0dXMSzEMXDpb-53">
          <mxGeometry y="60" width="182" height="30" as="geometry" />
        </mxCell>
        <mxCell id="2PKBjpNm0dXMSzEMXDpb-56" value="#genre_id: uuid" style="text;strokeColor=none;fillColor=none;align=left;verticalAlign=middle;spacingLeft=4;spacingRight=4;overflow=hidden;points=[[0,0.5],[1,0.5]];portConstraint=eastwest;rotatable=0;whiteSpace=wrap;html=1;" vertex="1" parent="2PKBjpNm0dXMSzEMXDpb-53">
          <mxGeometry y="90" width="182" height="30" as="geometry" />
        </mxCell>
        <mxCell id="2PKBjpNm0dXMSzEMXDpb-57" value="payment&lt;span style=&quot;font-family:&#39;Times New Roman&#39;;font-size:14pt;color:#000000;mso-style-textfill-fill-color:#000000&quot;&gt;&amp;nbsp;&lt;/span&gt;" style="swimlane;fontStyle=0;childLayout=stackLayout;horizontal=1;startSize=30;horizontalStack=0;resizeParent=1;resizeParentMax=0;resizeLast=0;collapsible=1;marginBottom=0;whiteSpace=wrap;html=1;" vertex="1" parent="1">
          <mxGeometry x="2120.14" y="725.86" width="170" height="150" as="geometry" />
        </mxCell>
        <mxCell id="2PKBjpNm0dXMSzEMXDpb-58" value="key ID: uuid" style="text;strokeColor=none;fillColor=none;align=left;verticalAlign=middle;spacingLeft=4;spacingRight=4;overflow=hidden;points=[[0,0.5],[1,0.5]];portConstraint=eastwest;rotatable=0;whiteSpace=wrap;html=1;" vertex="1" parent="2PKBjpNm0dXMSzEMXDpb-57">
          <mxGeometry y="30" width="170" height="30" as="geometry" />
        </mxCell>
        <mxCell id="2PKBjpNm0dXMSzEMXDpb-122" value="#user_id: uuid" style="text;strokeColor=none;fillColor=none;align=left;verticalAlign=middle;spacingLeft=4;spacingRight=4;overflow=hidden;points=[[0,0.5],[1,0.5]];portConstraint=eastwest;rotatable=0;whiteSpace=wrap;html=1;" vertex="1" parent="2PKBjpNm0dXMSzEMXDpb-57">
          <mxGeometry y="60" width="170" height="30" as="geometry" />
        </mxCell>
        <mxCell id="2PKBjpNm0dXMSzEMXDpb-59" value="amount: decimal(5, 2)" style="text;strokeColor=none;fillColor=none;align=left;verticalAlign=middle;spacingLeft=4;spacingRight=4;overflow=hidden;points=[[0,0.5],[1,0.5]];portConstraint=eastwest;rotatable=0;whiteSpace=wrap;html=1;" vertex="1" parent="2PKBjpNm0dXMSzEMXDpb-57">
          <mxGeometry y="90" width="170" height="30" as="geometry" />
        </mxCell>
        <mxCell id="2PKBjpNm0dXMSzEMXDpb-60" value="payment_date: timestamp" style="text;strokeColor=none;fillColor=none;align=left;verticalAlign=middle;spacingLeft=4;spacingRight=4;overflow=hidden;points=[[0,0.5],[1,0.5]];portConstraint=eastwest;rotatable=0;whiteSpace=wrap;html=1;" vertex="1" parent="2PKBjpNm0dXMSzEMXDpb-57">
          <mxGeometry y="120" width="170" height="30" as="geometry" />
        </mxCell>
        <mxCell id="2PKBjpNm0dXMSzEMXDpb-61" value="track&lt;span style=&quot;font-family:&#39;Times New Roman&#39;;font-size:14pt;color:#000000;mso-style-textfill-fill-color:#000000&quot;&gt;&amp;nbsp;&lt;/span&gt;" style="swimlane;fontStyle=0;childLayout=stackLayout;horizontal=1;startSize=30;horizontalStack=0;resizeParent=1;resizeParentMax=0;resizeLast=0;collapsible=1;marginBottom=0;whiteSpace=wrap;html=1;" vertex="1" parent="1">
          <mxGeometry x="570.14" y="1021.86" width="180" height="180" as="geometry" />
        </mxCell>
        <mxCell id="2PKBjpNm0dXMSzEMXDpb-62" value="key ID: uuid" style="text;strokeColor=none;fillColor=none;align=left;verticalAlign=middle;spacingLeft=4;spacingRight=4;overflow=hidden;points=[[0,0.5],[1,0.5]];portConstraint=eastwest;rotatable=0;whiteSpace=wrap;html=1;" vertex="1" parent="2PKBjpNm0dXMSzEMXDpb-61">
          <mxGeometry y="30" width="180" height="30" as="geometry" />
        </mxCell>
        <mxCell id="2PKBjpNm0dXMSzEMXDpb-63" value="title: varchar(100)" style="text;strokeColor=none;fillColor=none;align=left;verticalAlign=middle;spacingLeft=4;spacingRight=4;overflow=hidden;points=[[0,0.5],[1,0.5]];portConstraint=eastwest;rotatable=0;whiteSpace=wrap;html=1;" vertex="1" parent="2PKBjpNm0dXMSzEMXDpb-61">
          <mxGeometry y="60" width="180" height="30" as="geometry" />
        </mxCell>
        <mxCell id="2PKBjpNm0dXMSzEMXDpb-104" value="#album_id: uuid" style="text;strokeColor=none;fillColor=none;align=left;verticalAlign=middle;spacingLeft=4;spacingRight=4;overflow=hidden;points=[[0,0.5],[1,0.5]];portConstraint=eastwest;rotatable=0;whiteSpace=wrap;html=1;" vertex="1" parent="2PKBjpNm0dXMSzEMXDpb-61">
          <mxGeometry y="90" width="180" height="30" as="geometry" />
        </mxCell>
        <mxCell id="2PKBjpNm0dXMSzEMXDpb-103" value="last_listened_date: timestamp" style="text;strokeColor=none;fillColor=none;align=left;verticalAlign=middle;spacingLeft=4;spacingRight=4;overflow=hidden;points=[[0,0.5],[1,0.5]];portConstraint=eastwest;rotatable=0;whiteSpace=wrap;html=1;" vertex="1" parent="2PKBjpNm0dXMSzEMXDpb-61">
          <mxGeometry y="120" width="180" height="30" as="geometry" />
        </mxCell>
        <mxCell id="2PKBjpNm0dXMSzEMXDpb-263" value="average_rating: float" style="text;strokeColor=none;fillColor=none;align=left;verticalAlign=middle;spacingLeft=4;spacingRight=4;overflow=hidden;points=[[0,0.5],[1,0.5]];portConstraint=eastwest;rotatable=0;whiteSpace=wrap;html=1;" vertex="1" parent="2PKBjpNm0dXMSzEMXDpb-61">
          <mxGeometry y="150" width="180" height="30" as="geometry" />
        </mxCell>
        <mxCell id="2PKBjpNm0dXMSzEMXDpb-65" value="social_media" style="swimlane;fontStyle=0;childLayout=stackLayout;horizontal=1;startSize=30;horizontalStack=0;resizeParent=1;resizeParentMax=0;resizeLast=0;collapsible=1;marginBottom=0;whiteSpace=wrap;html=1;" vertex="1" parent="1">
          <mxGeometry x="1750.1399999999999" y="656.86" width="160" height="150" as="geometry" />
        </mxCell>
        <mxCell id="2PKBjpNm0dXMSzEMXDpb-66" value="key ID: uuid" style="text;strokeColor=none;fillColor=none;align=left;verticalAlign=middle;spacingLeft=4;spacingRight=4;overflow=hidden;points=[[0,0.5],[1,0.5]];portConstraint=eastwest;rotatable=0;whiteSpace=wrap;html=1;" vertex="1" parent="2PKBjpNm0dXMSzEMXDpb-65">
          <mxGeometry y="30" width="160" height="30" as="geometry" />
        </mxCell>
        <mxCell id="2PKBjpNm0dXMSzEMXDpb-129" value="#user_id: uuid" style="text;strokeColor=none;fillColor=none;align=left;verticalAlign=middle;spacingLeft=4;spacingRight=4;overflow=hidden;points=[[0,0.5],[1,0.5]];portConstraint=eastwest;rotatable=0;whiteSpace=wrap;html=1;" vertex="1" parent="2PKBjpNm0dXMSzEMXDpb-65">
          <mxGeometry y="60" width="160" height="30" as="geometry" />
        </mxCell>
        <mxCell id="2PKBjpNm0dXMSzEMXDpb-67" value="platform_name: varchar(50)" style="text;strokeColor=none;fillColor=none;align=left;verticalAlign=middle;spacingLeft=4;spacingRight=4;overflow=hidden;points=[[0,0.5],[1,0.5]];portConstraint=eastwest;rotatable=0;whiteSpace=wrap;html=1;" vertex="1" parent="2PKBjpNm0dXMSzEMXDpb-65">
          <mxGeometry y="90" width="160" height="30" as="geometry" />
        </mxCell>
        <mxCell id="2PKBjpNm0dXMSzEMXDpb-68" value="profile_link: varchar(255)" style="text;strokeColor=none;fillColor=none;align=left;verticalAlign=middle;spacingLeft=4;spacingRight=4;overflow=hidden;points=[[0,0.5],[1,0.5]];portConstraint=eastwest;rotatable=0;whiteSpace=wrap;html=1;" vertex="1" parent="2PKBjpNm0dXMSzEMXDpb-65">
          <mxGeometry y="120" width="160" height="30" as="geometry" />
        </mxCell>
        <mxCell id="2PKBjpNm0dXMSzEMXDpb-69" value="rating&lt;span style=&quot;font-family:&#39;Times New Roman&#39;;font-size:14pt;color:#000000;mso-style-textfill-fill-color:#000000&quot;&gt;&amp;nbsp;&lt;/span&gt;" style="swimlane;fontStyle=0;childLayout=stackLayout;horizontal=1;startSize=30;horizontalStack=0;resizeParent=1;resizeParentMax=0;resizeLast=0;collapsible=1;marginBottom=0;whiteSpace=wrap;html=1;" vertex="1" parent="1">
          <mxGeometry x="1160.1399999999999" y="761.86" width="200" height="150" as="geometry" />
        </mxCell>
        <mxCell id="2PKBjpNm0dXMSzEMXDpb-70" value="key ID: uuid" style="text;strokeColor=none;fillColor=none;align=left;verticalAlign=middle;spacingLeft=4;spacingRight=4;overflow=hidden;points=[[0,0.5],[1,0.5]];portConstraint=eastwest;rotatable=0;whiteSpace=wrap;html=1;" vertex="1" parent="2PKBjpNm0dXMSzEMXDpb-69">
          <mxGeometry y="30" width="200" height="30" as="geometry" />
        </mxCell>
        <mxCell id="2PKBjpNm0dXMSzEMXDpb-71" value="#user_id: uuid" style="text;strokeColor=none;fillColor=none;align=left;verticalAlign=middle;spacingLeft=4;spacingRight=4;overflow=hidden;points=[[0,0.5],[1,0.5]];portConstraint=eastwest;rotatable=0;whiteSpace=wrap;html=1;" vertex="1" parent="2PKBjpNm0dXMSzEMXDpb-69">
          <mxGeometry y="60" width="200" height="30" as="geometry" />
        </mxCell>
        <mxCell id="2PKBjpNm0dXMSzEMXDpb-72" value="#track_id: uuid" style="text;strokeColor=none;fillColor=none;align=left;verticalAlign=middle;spacingLeft=4;spacingRight=4;overflow=hidden;points=[[0,0.5],[1,0.5]];portConstraint=eastwest;rotatable=0;whiteSpace=wrap;html=1;" vertex="1" parent="2PKBjpNm0dXMSzEMXDpb-69">
          <mxGeometry y="90" width="200" height="30" as="geometry" />
        </mxCell>
        <mxCell id="2PKBjpNm0dXMSzEMXDpb-110" value="score: int" style="text;strokeColor=none;fillColor=none;align=left;verticalAlign=middle;spacingLeft=4;spacingRight=4;overflow=hidden;points=[[0,0.5],[1,0.5]];portConstraint=eastwest;rotatable=0;whiteSpace=wrap;html=1;" vertex="1" parent="2PKBjpNm0dXMSzEMXDpb-69">
          <mxGeometry y="120" width="200" height="30" as="geometry" />
        </mxCell>
        <mxCell id="2PKBjpNm0dXMSzEMXDpb-73" value="support&lt;span style=&quot;font-family:&#39;Times New Roman&#39;;font-size:14pt;color:#000000;mso-style-textfill-fill-color:#000000&quot;&gt;&amp;nbsp;&lt;/span&gt;" style="swimlane;fontStyle=0;childLayout=stackLayout;horizontal=1;startSize=30;horizontalStack=0;resizeParent=1;resizeParentMax=0;resizeLast=0;collapsible=1;marginBottom=0;whiteSpace=wrap;html=1;" vertex="1" parent="1">
          <mxGeometry x="2120.14" y="901.86" width="170" height="210" as="geometry" />
        </mxCell>
        <mxCell id="2PKBjpNm0dXMSzEMXDpb-74" value="key ID: uuid" style="text;strokeColor=none;fillColor=none;align=left;verticalAlign=middle;spacingLeft=4;spacingRight=4;overflow=hidden;points=[[0,0.5],[1,0.5]];portConstraint=eastwest;rotatable=0;whiteSpace=wrap;html=1;" vertex="1" parent="2PKBjpNm0dXMSzEMXDpb-73">
          <mxGeometry y="30" width="170" height="30" as="geometry" />
        </mxCell>
        <mxCell id="2PKBjpNm0dXMSzEMXDpb-131" value="#user_id: uuid" style="text;strokeColor=none;fillColor=none;align=left;verticalAlign=middle;spacingLeft=4;spacingRight=4;overflow=hidden;points=[[0,0.5],[1,0.5]];portConstraint=eastwest;rotatable=0;whiteSpace=wrap;html=1;" vertex="1" parent="2PKBjpNm0dXMSzEMXDpb-73">
          <mxGeometry y="60" width="170" height="30" as="geometry" />
        </mxCell>
        <mxCell id="2PKBjpNm0dXMSzEMXDpb-75" value="request_text: text" style="text;strokeColor=none;fillColor=none;align=left;verticalAlign=middle;spacingLeft=4;spacingRight=4;overflow=hidden;points=[[0,0.5],[1,0.5]];portConstraint=eastwest;rotatable=0;whiteSpace=wrap;html=1;" vertex="1" parent="2PKBjpNm0dXMSzEMXDpb-73">
          <mxGeometry y="90" width="170" height="30" as="geometry" />
        </mxCell>
        <mxCell id="2PKBjpNm0dXMSzEMXDpb-133" value="request_date: timestamp" style="text;strokeColor=none;fillColor=none;align=left;verticalAlign=middle;spacingLeft=4;spacingRight=4;overflow=hidden;points=[[0,0.5],[1,0.5]];portConstraint=eastwest;rotatable=0;whiteSpace=wrap;html=1;" vertex="1" parent="2PKBjpNm0dXMSzEMXDpb-73">
          <mxGeometry y="120" width="170" height="30" as="geometry" />
        </mxCell>
        <mxCell id="2PKBjpNm0dXMSzEMXDpb-132" value="response_text: text" style="text;strokeColor=none;fillColor=none;align=left;verticalAlign=middle;spacingLeft=4;spacingRight=4;overflow=hidden;points=[[0,0.5],[1,0.5]];portConstraint=eastwest;rotatable=0;whiteSpace=wrap;html=1;" vertex="1" parent="2PKBjpNm0dXMSzEMXDpb-73">
          <mxGeometry y="150" width="170" height="30" as="geometry" />
        </mxCell>
        <mxCell id="2PKBjpNm0dXMSzEMXDpb-134" value="response_date: timestamp" style="text;strokeColor=none;fillColor=none;align=left;verticalAlign=middle;spacingLeft=4;spacingRight=4;overflow=hidden;points=[[0,0.5],[1,0.5]];portConstraint=eastwest;rotatable=0;whiteSpace=wrap;html=1;" vertex="1" parent="2PKBjpNm0dXMSzEMXDpb-73">
          <mxGeometry y="180" width="170" height="30" as="geometry" />
        </mxCell>
        <mxCell id="2PKBjpNm0dXMSzEMXDpb-77" value="subscription&lt;span style=&quot;font-family:&#39;Times New Roman&#39;;font-size:14pt;color:#000000;mso-style-textfill-fill-color:#000000&quot;&gt;&amp;nbsp;&lt;/span&gt;" style="swimlane;fontStyle=0;childLayout=stackLayout;horizontal=1;startSize=30;horizontalStack=0;resizeParent=1;resizeParentMax=0;resizeLast=0;collapsible=1;marginBottom=0;whiteSpace=wrap;html=1;" vertex="1" parent="1">
          <mxGeometry x="2120.14" y="261.86" width="170" height="240" as="geometry" />
        </mxCell>
        <mxCell id="2PKBjpNm0dXMSzEMXDpb-78" value="key ID: uuid" style="text;strokeColor=none;fillColor=none;align=left;verticalAlign=middle;spacingLeft=4;spacingRight=4;overflow=hidden;points=[[0,0.5],[1,0.5]];portConstraint=eastwest;rotatable=0;whiteSpace=wrap;html=1;" vertex="1" parent="2PKBjpNm0dXMSzEMXDpb-77">
          <mxGeometry y="30" width="170" height="30" as="geometry" />
        </mxCell>
        <mxCell id="2PKBjpNm0dXMSzEMXDpb-79" value="#user_id: uuid" style="text;strokeColor=none;fillColor=none;align=left;verticalAlign=middle;spacingLeft=4;spacingRight=4;overflow=hidden;points=[[0,0.5],[1,0.5]];portConstraint=eastwest;rotatable=0;whiteSpace=wrap;html=1;" vertex="1" parent="2PKBjpNm0dXMSzEMXDpb-77">
          <mxGeometry y="60" width="170" height="30" as="geometry" />
        </mxCell>
        <mxCell id="2PKBjpNm0dXMSzEMXDpb-80" value="#payment: varchar(50)" style="text;strokeColor=none;fillColor=none;align=left;verticalAlign=middle;spacingLeft=4;spacingRight=4;overflow=hidden;points=[[0,0.5],[1,0.5]];portConstraint=eastwest;rotatable=0;whiteSpace=wrap;html=1;" vertex="1" parent="2PKBjpNm0dXMSzEMXDpb-77">
          <mxGeometry y="90" width="170" height="30" as="geometry" />
        </mxCell>
        <mxCell id="2PKBjpNm0dXMSzEMXDpb-189" value="type: varchar(50)" style="text;strokeColor=none;fillColor=none;align=left;verticalAlign=middle;spacingLeft=4;spacingRight=4;overflow=hidden;points=[[0,0.5],[1,0.5]];portConstraint=eastwest;rotatable=0;whiteSpace=wrap;html=1;" vertex="1" parent="2PKBjpNm0dXMSzEMXDpb-77">
          <mxGeometry y="120" width="170" height="30" as="geometry" />
        </mxCell>
        <mxCell id="2PKBjpNm0dXMSzEMXDpb-107" value="cost: decimal(5,2)" style="text;strokeColor=none;fillColor=none;align=left;verticalAlign=middle;spacingLeft=4;spacingRight=4;overflow=hidden;points=[[0,0.5],[1,0.5]];portConstraint=eastwest;rotatable=0;whiteSpace=wrap;html=1;" vertex="1" parent="2PKBjpNm0dXMSzEMXDpb-77">
          <mxGeometry y="150" width="170" height="30" as="geometry" />
        </mxCell>
        <mxCell id="2PKBjpNm0dXMSzEMXDpb-108" value="start_date: timestamp" style="text;strokeColor=none;fillColor=none;align=left;verticalAlign=middle;spacingLeft=4;spacingRight=4;overflow=hidden;points=[[0,0.5],[1,0.5]];portConstraint=eastwest;rotatable=0;whiteSpace=wrap;html=1;" vertex="1" parent="2PKBjpNm0dXMSzEMXDpb-77">
          <mxGeometry y="180" width="170" height="30" as="geometry" />
        </mxCell>
        <mxCell id="2PKBjpNm0dXMSzEMXDpb-106" value="end_date: timestamp" style="text;strokeColor=none;fillColor=none;align=left;verticalAlign=middle;spacingLeft=4;spacingRight=4;overflow=hidden;points=[[0,0.5],[1,0.5]];portConstraint=eastwest;rotatable=0;whiteSpace=wrap;html=1;" vertex="1" parent="2PKBjpNm0dXMSzEMXDpb-77">
          <mxGeometry y="210" width="170" height="30" as="geometry" />
        </mxCell>
        <mxCell id="2PKBjpNm0dXMSzEMXDpb-81" value="recommendation&lt;span style=&quot;font-family:&#39;Times New Roman&#39;;font-size:14pt;color:#000000;mso-style-textfill-fill-color:#000000&quot;&gt;&amp;nbsp;&lt;/span&gt;" style="swimlane;fontStyle=0;childLayout=stackLayout;horizontal=1;startSize=30;horizontalStack=0;resizeParent=1;resizeParentMax=0;resizeLast=0;collapsible=1;marginBottom=0;whiteSpace=wrap;html=1;" vertex="1" parent="1">
          <mxGeometry x="1160.1399999999999" y="591.86" width="200" height="150" as="geometry" />
        </mxCell>
        <mxCell id="2PKBjpNm0dXMSzEMXDpb-82" value="key ID: uuid" style="text;strokeColor=none;fillColor=none;align=left;verticalAlign=middle;spacingLeft=4;spacingRight=4;overflow=hidden;points=[[0,0.5],[1,0.5]];portConstraint=eastwest;rotatable=0;whiteSpace=wrap;html=1;" vertex="1" parent="2PKBjpNm0dXMSzEMXDpb-81">
          <mxGeometry y="30" width="200" height="30" as="geometry" />
        </mxCell>
        <mxCell id="2PKBjpNm0dXMSzEMXDpb-120" value="#user_id: uuid" style="text;strokeColor=none;fillColor=none;align=left;verticalAlign=middle;spacingLeft=4;spacingRight=4;overflow=hidden;points=[[0,0.5],[1,0.5]];portConstraint=eastwest;rotatable=0;whiteSpace=wrap;html=1;" vertex="1" parent="2PKBjpNm0dXMSzEMXDpb-81">
          <mxGeometry y="60" width="200" height="30" as="geometry" />
        </mxCell>
        <mxCell id="2PKBjpNm0dXMSzEMXDpb-121" value="#track_id: uuid" style="text;strokeColor=none;fillColor=none;align=left;verticalAlign=middle;spacingLeft=4;spacingRight=4;overflow=hidden;points=[[0,0.5],[1,0.5]];portConstraint=eastwest;rotatable=0;whiteSpace=wrap;html=1;" vertex="1" parent="2PKBjpNm0dXMSzEMXDpb-81">
          <mxGeometry y="90" width="200" height="30" as="geometry" />
        </mxCell>
        <mxCell id="2PKBjpNm0dXMSzEMXDpb-84" value="recomendation_date: timestamp" style="text;strokeColor=none;fillColor=none;align=left;verticalAlign=middle;spacingLeft=4;spacingRight=4;overflow=hidden;points=[[0,0.5],[1,0.5]];portConstraint=eastwest;rotatable=0;whiteSpace=wrap;html=1;" vertex="1" parent="2PKBjpNm0dXMSzEMXDpb-81">
          <mxGeometry y="120" width="200" height="30" as="geometry" />
        </mxCell>
        <mxCell id="2PKBjpNm0dXMSzEMXDpb-85" value="playlist&lt;span style=&quot;font-family:&#39;Times New Roman&#39;;font-size:14pt;color:#000000;mso-style-textfill-fill-color:#000000&quot;&gt;&amp;nbsp;&lt;/span&gt;" style="swimlane;fontStyle=0;childLayout=stackLayout;horizontal=1;startSize=30;horizontalStack=0;resizeParent=1;resizeParentMax=0;resizeLast=0;collapsible=1;marginBottom=0;whiteSpace=wrap;html=1;" vertex="1" parent="1">
          <mxGeometry x="2120.14" y="521.86" width="170" height="180" as="geometry" />
        </mxCell>
        <mxCell id="2PKBjpNm0dXMSzEMXDpb-86" value="key ID: uuid" style="text;strokeColor=none;fillColor=none;align=left;verticalAlign=middle;spacingLeft=4;spacingRight=4;overflow=hidden;points=[[0,0.5],[1,0.5]];portConstraint=eastwest;rotatable=0;whiteSpace=wrap;html=1;" vertex="1" parent="2PKBjpNm0dXMSzEMXDpb-85">
          <mxGeometry y="30" width="170" height="30" as="geometry" />
        </mxCell>
        <mxCell id="2PKBjpNm0dXMSzEMXDpb-87" value="#user_id: uuid" style="text;strokeColor=none;fillColor=none;align=left;verticalAlign=middle;spacingLeft=4;spacingRight=4;overflow=hidden;points=[[0,0.5],[1,0.5]];portConstraint=eastwest;rotatable=0;whiteSpace=wrap;html=1;" vertex="1" parent="2PKBjpNm0dXMSzEMXDpb-85">
          <mxGeometry y="60" width="170" height="30" as="geometry" />
        </mxCell>
        <mxCell id="2PKBjpNm0dXMSzEMXDpb-261" value="track_count: int" style="text;strokeColor=none;fillColor=none;align=left;verticalAlign=middle;spacingLeft=4;spacingRight=4;overflow=hidden;points=[[0,0.5],[1,0.5]];portConstraint=eastwest;rotatable=0;whiteSpace=wrap;html=1;" vertex="1" parent="2PKBjpNm0dXMSzEMXDpb-85">
          <mxGeometry y="90" width="170" height="30" as="geometry" />
        </mxCell>
        <mxCell id="2PKBjpNm0dXMSzEMXDpb-262" value="last_modified_date: timestam" style="text;strokeColor=none;fillColor=none;align=left;verticalAlign=middle;spacingLeft=4;spacingRight=4;overflow=hidden;points=[[0,0.5],[1,0.5]];portConstraint=eastwest;rotatable=0;whiteSpace=wrap;html=1;" vertex="1" parent="2PKBjpNm0dXMSzEMXDpb-85">
          <mxGeometry y="120" width="170" height="30" as="geometry" />
        </mxCell>
        <mxCell id="2PKBjpNm0dXMSzEMXDpb-88" value="title: varchar(100)" style="text;strokeColor=none;fillColor=none;align=left;verticalAlign=middle;spacingLeft=4;spacingRight=4;overflow=hidden;points=[[0,0.5],[1,0.5]];portConstraint=eastwest;rotatable=0;whiteSpace=wrap;html=1;" vertex="1" parent="2PKBjpNm0dXMSzEMXDpb-85">
          <mxGeometry y="150" width="170" height="30" as="geometry" />
        </mxCell>
        <mxCell id="2PKBjpNm0dXMSzEMXDpb-89" value="users&lt;span style=&quot;font-family:&#39;Times New Roman&#39;;font-size:14pt;color:#000000;mso-style-textfill-fill-color:#000000&quot;&gt;&amp;nbsp;&lt;/span&gt;" style="swimlane;fontStyle=0;childLayout=stackLayout;horizontal=1;startSize=30;horizontalStack=0;resizeParent=1;resizeParentMax=0;resizeLast=0;collapsible=1;marginBottom=0;whiteSpace=wrap;html=1;" vertex="1" parent="1">
          <mxGeometry x="1750.1399999999999" y="1081.8600000000001" width="180" height="180" as="geometry" />
        </mxCell>
        <mxCell id="2PKBjpNm0dXMSzEMXDpb-90" value="key ID: uuid" style="text;strokeColor=none;fillColor=none;align=left;verticalAlign=middle;spacingLeft=4;spacingRight=4;overflow=hidden;points=[[0,0.5],[1,0.5]];portConstraint=eastwest;rotatable=0;whiteSpace=wrap;html=1;" vertex="1" parent="2PKBjpNm0dXMSzEMXDpb-89">
          <mxGeometry y="30" width="180" height="30" as="geometry" />
        </mxCell>
        <mxCell id="2PKBjpNm0dXMSzEMXDpb-91" value="name: varchar(100)" style="text;strokeColor=none;fillColor=none;align=left;verticalAlign=middle;spacingLeft=4;spacingRight=4;overflow=hidden;points=[[0,0.5],[1,0.5]];portConstraint=eastwest;rotatable=0;whiteSpace=wrap;html=1;" vertex="1" parent="2PKBjpNm0dXMSzEMXDpb-89">
          <mxGeometry y="60" width="180" height="30" as="geometry" />
        </mxCell>
        <mxCell id="2PKBjpNm0dXMSzEMXDpb-92" value="email: varchar(100)" style="text;strokeColor=none;fillColor=none;align=left;verticalAlign=middle;spacingLeft=4;spacingRight=4;overflow=hidden;points=[[0,0.5],[1,0.5]];portConstraint=eastwest;rotatable=0;whiteSpace=wrap;html=1;" vertex="1" parent="2PKBjpNm0dXMSzEMXDpb-89">
          <mxGeometry y="90" width="180" height="30" as="geometry" />
        </mxCell>
        <mxCell id="2PKBjpNm0dXMSzEMXDpb-112" value="registration_date: timestamp" style="text;strokeColor=none;fillColor=none;align=left;verticalAlign=middle;spacingLeft=4;spacingRight=4;overflow=hidden;points=[[0,0.5],[1,0.5]];portConstraint=eastwest;rotatable=0;whiteSpace=wrap;html=1;" vertex="1" parent="2PKBjpNm0dXMSzEMXDpb-89">
          <mxGeometry y="120" width="180" height="30" as="geometry" />
        </mxCell>
        <mxCell id="2PKBjpNm0dXMSzEMXDpb-102" value="password: varchar(255)" style="text;strokeColor=none;fillColor=none;align=left;verticalAlign=middle;spacingLeft=4;spacingRight=4;overflow=hidden;points=[[0,0.5],[1,0.5]];portConstraint=eastwest;rotatable=0;whiteSpace=wrap;html=1;" vertex="1" parent="2PKBjpNm0dXMSzEMXDpb-89">
          <mxGeometry y="150" width="180" height="30" as="geometry" />
        </mxCell>
        <mxCell id="2PKBjpNm0dXMSzEMXDpb-93" value="review&lt;span style=&quot;font-family:&#39;Times New Roman&#39;;font-size:14pt;color:#000000;mso-style-textfill-fill-color:#000000&quot;&gt;&amp;nbsp;&lt;/span&gt;" style="swimlane;fontStyle=0;childLayout=stackLayout;horizontal=1;startSize=30;horizontalStack=0;resizeParent=1;resizeParentMax=0;resizeLast=0;collapsible=1;marginBottom=0;whiteSpace=wrap;html=1;" vertex="1" parent="1">
          <mxGeometry x="1160.1399999999999" y="1101.8600000000001" width="200" height="150" as="geometry" />
        </mxCell>
        <mxCell id="2PKBjpNm0dXMSzEMXDpb-94" value="key ID: uuid" style="text;strokeColor=none;fillColor=none;align=left;verticalAlign=middle;spacingLeft=4;spacingRight=4;overflow=hidden;points=[[0,0.5],[1,0.5]];portConstraint=eastwest;rotatable=0;whiteSpace=wrap;html=1;" vertex="1" parent="2PKBjpNm0dXMSzEMXDpb-93">
          <mxGeometry y="30" width="200" height="30" as="geometry" />
        </mxCell>
        <mxCell id="2PKBjpNm0dXMSzEMXDpb-95" value="#user_id: uuid" style="text;strokeColor=none;fillColor=none;align=left;verticalAlign=middle;spacingLeft=4;spacingRight=4;overflow=hidden;points=[[0,0.5],[1,0.5]];portConstraint=eastwest;rotatable=0;whiteSpace=wrap;html=1;" vertex="1" parent="2PKBjpNm0dXMSzEMXDpb-93">
          <mxGeometry y="60" width="200" height="30" as="geometry" />
        </mxCell>
        <mxCell id="2PKBjpNm0dXMSzEMXDpb-96" value="#track_id: uuid" style="text;strokeColor=none;fillColor=none;align=left;verticalAlign=middle;spacingLeft=4;spacingRight=4;overflow=hidden;points=[[0,0.5],[1,0.5]];portConstraint=eastwest;rotatable=0;whiteSpace=wrap;html=1;" vertex="1" parent="2PKBjpNm0dXMSzEMXDpb-93">
          <mxGeometry y="90" width="200" height="30" as="geometry" />
        </mxCell>
        <mxCell id="2PKBjpNm0dXMSzEMXDpb-111" value="text: text" style="text;strokeColor=none;fillColor=none;align=left;verticalAlign=middle;spacingLeft=4;spacingRight=4;overflow=hidden;points=[[0,0.5],[1,0.5]];portConstraint=eastwest;rotatable=0;whiteSpace=wrap;html=1;" vertex="1" parent="2PKBjpNm0dXMSzEMXDpb-93">
          <mxGeometry y="120" width="200" height="30" as="geometry" />
        </mxCell>
        <mxCell id="2PKBjpNm0dXMSzEMXDpb-97" value="podcast&lt;span style=&quot;font-family:&#39;Times New Roman&#39;;font-size:14pt;color:#000000;mso-style-textfill-fill-color:#000000&quot;&gt;&amp;nbsp;&lt;/span&gt;" style="swimlane;fontStyle=0;childLayout=stackLayout;horizontal=1;startSize=30;horizontalStack=0;resizeParent=1;resizeParentMax=0;resizeLast=0;collapsible=1;marginBottom=0;whiteSpace=wrap;html=1;" vertex="1" parent="1">
          <mxGeometry x="140.14" y="891.86" width="182" height="180" as="geometry" />
        </mxCell>
        <mxCell id="2PKBjpNm0dXMSzEMXDpb-98" value="key ID: uuid" style="text;strokeColor=none;fillColor=none;align=left;verticalAlign=middle;spacingLeft=4;spacingRight=4;overflow=hidden;points=[[0,0.5],[1,0.5]];portConstraint=eastwest;rotatable=0;whiteSpace=wrap;html=1;" vertex="1" parent="2PKBjpNm0dXMSzEMXDpb-97">
          <mxGeometry y="30" width="182" height="30" as="geometry" />
        </mxCell>
        <mxCell id="2PKBjpNm0dXMSzEMXDpb-99" value="title: varchar(100)" style="text;strokeColor=none;fillColor=none;align=left;verticalAlign=middle;spacingLeft=4;spacingRight=4;overflow=hidden;points=[[0,0.5],[1,0.5]];portConstraint=eastwest;rotatable=0;whiteSpace=wrap;html=1;" vertex="1" parent="2PKBjpNm0dXMSzEMXDpb-97">
          <mxGeometry y="60" width="182" height="30" as="geometry" />
        </mxCell>
        <mxCell id="2PKBjpNm0dXMSzEMXDpb-100" value="description: text" style="text;strokeColor=none;fillColor=none;align=left;verticalAlign=middle;spacingLeft=4;spacingRight=4;overflow=hidden;points=[[0,0.5],[1,0.5]];portConstraint=eastwest;rotatable=0;whiteSpace=wrap;html=1;" vertex="1" parent="2PKBjpNm0dXMSzEMXDpb-97">
          <mxGeometry y="90" width="182" height="30" as="geometry" />
        </mxCell>
        <mxCell id="2PKBjpNm0dXMSzEMXDpb-163" value="#genre: uuid" style="text;strokeColor=none;fillColor=none;align=left;verticalAlign=middle;spacingLeft=4;spacingRight=4;overflow=hidden;points=[[0,0.5],[1,0.5]];portConstraint=eastwest;rotatable=0;whiteSpace=wrap;html=1;" vertex="1" parent="2PKBjpNm0dXMSzEMXDpb-97">
          <mxGeometry y="120" width="182" height="30" as="geometry" />
        </mxCell>
        <mxCell id="2PKBjpNm0dXMSzEMXDpb-124" value="release_date: timestamp" style="text;strokeColor=none;fillColor=none;align=left;verticalAlign=middle;spacingLeft=4;spacingRight=4;overflow=hidden;points=[[0,0.5],[1,0.5]];portConstraint=eastwest;rotatable=0;whiteSpace=wrap;html=1;" vertex="1" parent="2PKBjpNm0dXMSzEMXDpb-97">
          <mxGeometry y="150" width="182" height="30" as="geometry" />
        </mxCell>
        <mxCell id="2PKBjpNm0dXMSzEMXDpb-136" style="edgeStyle=orthogonalEdgeStyle;rounded=0;orthogonalLoop=1;jettySize=auto;html=1;exitX=0;exitY=0.5;exitDx=0;exitDy=0;endArrow=ERoneToMany;endFill=0;startArrow=none;startFill=0;" edge="1" parent="1" source="2PKBjpNm0dXMSzEMXDpb-90">
          <mxGeometry relative="1" as="geometry">
            <mxPoint x="1750.1399999999999" y="577.86" as="targetPoint" />
            <Array as="points">
              <mxPoint x="1670.1399999999999" y="1126.8600000000001" />
              <mxPoint x="1670.1399999999999" y="577.86" />
            </Array>
          </mxGeometry>
        </mxCell>
        <mxCell id="2PKBjpNm0dXMSzEMXDpb-137" style="edgeStyle=orthogonalEdgeStyle;rounded=0;orthogonalLoop=1;jettySize=auto;html=1;exitX=0;exitY=0.5;exitDx=0;exitDy=0;entryX=1;entryY=0.5;entryDx=0;entryDy=0;endArrow=ERzeroToMany;endFill=0;" edge="1" parent="1" source="2PKBjpNm0dXMSzEMXDpb-90" target="2PKBjpNm0dXMSzEMXDpb-95">
          <mxGeometry relative="1" as="geometry">
            <Array as="points">
              <mxPoint x="1400.1399999999999" y="1126.8600000000001" />
              <mxPoint x="1400.1399999999999" y="1176.8600000000001" />
            </Array>
          </mxGeometry>
        </mxCell>
        <mxCell id="2PKBjpNm0dXMSzEMXDpb-138" style="edgeStyle=orthogonalEdgeStyle;rounded=0;orthogonalLoop=1;jettySize=auto;html=1;exitX=1;exitY=0.5;exitDx=0;exitDy=0;entryX=0;entryY=0.5;entryDx=0;entryDy=0;endArrow=ERmandOne;endFill=0;" edge="1" parent="1" source="2PKBjpNm0dXMSzEMXDpb-90" target="2PKBjpNm0dXMSzEMXDpb-125">
          <mxGeometry relative="1" as="geometry">
            <Array as="points">
              <mxPoint x="2100.14" y="1126.8600000000001" />
              <mxPoint x="2100.14" y="1226.8600000000001" />
            </Array>
          </mxGeometry>
        </mxCell>
        <mxCell id="2PKBjpNm0dXMSzEMXDpb-139" style="edgeStyle=orthogonalEdgeStyle;rounded=0;orthogonalLoop=1;jettySize=auto;html=1;exitX=1;exitY=0.5;exitDx=0;exitDy=0;entryX=0;entryY=0.5;entryDx=0;entryDy=0;endArrow=ERzeroToMany;endFill=0;" edge="1" parent="1" source="2PKBjpNm0dXMSzEMXDpb-90" target="2PKBjpNm0dXMSzEMXDpb-131">
          <mxGeometry relative="1" as="geometry">
            <Array as="points">
              <mxPoint x="2070.14" y="1126.8600000000001" />
              <mxPoint x="2070.14" y="976.86" />
            </Array>
          </mxGeometry>
        </mxCell>
        <mxCell id="2PKBjpNm0dXMSzEMXDpb-140" style="edgeStyle=orthogonalEdgeStyle;rounded=0;orthogonalLoop=1;jettySize=auto;html=1;exitX=0;exitY=0.5;exitDx=0;exitDy=0;entryX=1;entryY=0.5;entryDx=0;entryDy=0;endArrow=ERzeroToMany;endFill=0;" edge="1" parent="1" source="2PKBjpNm0dXMSzEMXDpb-90" target="2PKBjpNm0dXMSzEMXDpb-27">
          <mxGeometry relative="1" as="geometry">
            <mxPoint x="2010.1399999999999" y="1131.8600000000001" as="sourcePoint" />
            <mxPoint x="1410.1399999999999" y="501.86" as="targetPoint" />
            <Array as="points">
              <mxPoint x="1550.1399999999999" y="1126.8600000000001" />
              <mxPoint x="1550.1399999999999" y="496.86" />
            </Array>
          </mxGeometry>
        </mxCell>
        <mxCell id="2PKBjpNm0dXMSzEMXDpb-141" style="edgeStyle=orthogonalEdgeStyle;rounded=0;orthogonalLoop=1;jettySize=auto;html=1;exitX=0;exitY=0.5;exitDx=0;exitDy=0;endArrow=ERzeroToMany;endFill=0;entryX=0;entryY=0.5;entryDx=0;entryDy=0;" edge="1" parent="1" source="2PKBjpNm0dXMSzEMXDpb-90" target="2PKBjpNm0dXMSzEMXDpb-129">
          <mxGeometry relative="1" as="geometry">
            <mxPoint x="1730.1399999999999" y="741.86" as="targetPoint" />
            <Array as="points">
              <mxPoint x="1690.1399999999999" y="1126.8600000000001" />
              <mxPoint x="1690.1399999999999" y="731.86" />
            </Array>
          </mxGeometry>
        </mxCell>
        <mxCell id="2PKBjpNm0dXMSzEMXDpb-142" style="edgeStyle=orthogonalEdgeStyle;rounded=0;orthogonalLoop=1;jettySize=auto;html=1;exitX=0;exitY=0.5;exitDx=0;exitDy=0;entryX=1;entryY=0.5;entryDx=0;entryDy=0;endArrow=ERzeroToMany;endFill=0;" edge="1" parent="1" source="2PKBjpNm0dXMSzEMXDpb-90" target="2PKBjpNm0dXMSzEMXDpb-120">
          <mxGeometry relative="1" as="geometry">
            <Array as="points">
              <mxPoint x="1510.1399999999999" y="1126.8600000000001" />
              <mxPoint x="1510.1399999999999" y="666.86" />
            </Array>
          </mxGeometry>
        </mxCell>
        <mxCell id="2PKBjpNm0dXMSzEMXDpb-143" style="edgeStyle=orthogonalEdgeStyle;rounded=0;orthogonalLoop=1;jettySize=auto;html=1;exitX=1;exitY=0.5;exitDx=0;exitDy=0;entryX=0;entryY=0.5;entryDx=0;entryDy=0;endArrow=ERzeroToMany;endFill=0;" edge="1" parent="1" source="2PKBjpNm0dXMSzEMXDpb-90" target="2PKBjpNm0dXMSzEMXDpb-79">
          <mxGeometry relative="1" as="geometry">
            <Array as="points">
              <mxPoint x="1970.1399999999999" y="1126.8600000000001" />
              <mxPoint x="1970.1399999999999" y="336.86" />
            </Array>
          </mxGeometry>
        </mxCell>
        <mxCell id="2PKBjpNm0dXMSzEMXDpb-144" style="edgeStyle=orthogonalEdgeStyle;rounded=0;orthogonalLoop=1;jettySize=auto;html=1;exitX=1;exitY=0.5;exitDx=0;exitDy=0;entryX=0;entryY=0.5;entryDx=0;entryDy=0;endArrow=ERzeroToOne;endFill=0;" edge="1" parent="1" source="2PKBjpNm0dXMSzEMXDpb-90" target="2PKBjpNm0dXMSzEMXDpb-122">
          <mxGeometry relative="1" as="geometry">
            <Array as="points">
              <mxPoint x="2040.1399999999999" y="1126.8600000000001" />
              <mxPoint x="2040.1399999999999" y="800.86" />
            </Array>
          </mxGeometry>
        </mxCell>
        <mxCell id="2PKBjpNm0dXMSzEMXDpb-145" style="edgeStyle=orthogonalEdgeStyle;rounded=0;orthogonalLoop=1;jettySize=auto;html=1;entryX=0;entryY=0.5;entryDx=0;entryDy=0;endArrow=ERzeroToMany;endFill=0;exitX=1;exitY=0.5;exitDx=0;exitDy=0;startArrow=ERmandOne;startFill=0;" edge="1" parent="1" source="2PKBjpNm0dXMSzEMXDpb-90" target="2PKBjpNm0dXMSzEMXDpb-87">
          <mxGeometry relative="1" as="geometry">
            <mxPoint x="1940.1399999999999" y="1126.8600000000001" as="sourcePoint" />
            <Array as="points">
              <mxPoint x="2010.1399999999999" y="1126.8600000000001" />
              <mxPoint x="2010.1399999999999" y="596.86" />
            </Array>
          </mxGeometry>
        </mxCell>
        <mxCell id="2PKBjpNm0dXMSzEMXDpb-146" style="edgeStyle=orthogonalEdgeStyle;rounded=0;orthogonalLoop=1;jettySize=auto;html=1;exitX=0;exitY=0.5;exitDx=0;exitDy=0;entryX=1;entryY=0.5;entryDx=0;entryDy=0;endArrow=ERzeroToMany;endFill=0;" edge="1" parent="1" source="2PKBjpNm0dXMSzEMXDpb-90" target="2PKBjpNm0dXMSzEMXDpb-118">
          <mxGeometry relative="1" as="geometry">
            <Array as="points">
              <mxPoint x="1430.1399999999999" y="1126.8600000000001" />
              <mxPoint x="1430.1399999999999" y="1006.86" />
            </Array>
          </mxGeometry>
        </mxCell>
        <mxCell id="2PKBjpNm0dXMSzEMXDpb-147" style="edgeStyle=orthogonalEdgeStyle;rounded=0;orthogonalLoop=1;jettySize=auto;html=1;exitX=0;exitY=0.5;exitDx=0;exitDy=0;entryX=1;entryY=0.5;entryDx=0;entryDy=0;endArrow=ERzeroToMany;endFill=0;" edge="1" parent="1" source="2PKBjpNm0dXMSzEMXDpb-90" target="2PKBjpNm0dXMSzEMXDpb-71">
          <mxGeometry relative="1" as="geometry">
            <Array as="points">
              <mxPoint x="1470.1399999999999" y="1126.8600000000001" />
              <mxPoint x="1470.1399999999999" y="836.86" />
            </Array>
          </mxGeometry>
        </mxCell>
        <mxCell id="2PKBjpNm0dXMSzEMXDpb-148" style="edgeStyle=orthogonalEdgeStyle;rounded=0;orthogonalLoop=1;jettySize=auto;html=1;exitX=0;exitY=0.5;exitDx=0;exitDy=0;endArrow=ERoneToMany;endFill=0;entryX=0;entryY=0.5;entryDx=0;entryDy=0;startArrow=none;startFill=0;" edge="1" parent="1" source="2PKBjpNm0dXMSzEMXDpb-90" target="2PKBjpNm0dXMSzEMXDpb-128">
          <mxGeometry relative="1" as="geometry">
            <mxPoint x="1730.1399999999999" y="977.86" as="targetPoint" />
            <Array as="points">
              <mxPoint x="1710.1399999999999" y="1126.8600000000001" />
              <mxPoint x="1710.1399999999999" y="921.86" />
            </Array>
          </mxGeometry>
        </mxCell>
        <mxCell id="2PKBjpNm0dXMSzEMXDpb-149" style="edgeStyle=orthogonalEdgeStyle;rounded=0;orthogonalLoop=1;jettySize=auto;html=1;exitX=1;exitY=0.5;exitDx=0;exitDy=0;entryX=0;entryY=0.5;entryDx=0;entryDy=0;endArrow=ERzeroToMany;endFill=0;" edge="1" parent="1" source="2PKBjpNm0dXMSzEMXDpb-62" target="2PKBjpNm0dXMSzEMXDpb-96">
          <mxGeometry relative="1" as="geometry">
            <Array as="points">
              <mxPoint x="1110.1399999999999" y="1066.8600000000001" />
              <mxPoint x="1110.1399999999999" y="1206.8600000000001" />
            </Array>
          </mxGeometry>
        </mxCell>
        <mxCell id="2PKBjpNm0dXMSzEMXDpb-150" style="edgeStyle=orthogonalEdgeStyle;rounded=0;orthogonalLoop=1;jettySize=auto;html=1;exitX=1;exitY=0.5;exitDx=0;exitDy=0;entryX=0;entryY=0.5;entryDx=0;entryDy=0;endArrow=ERzeroToMany;endFill=0;" edge="1" parent="1" source="2PKBjpNm0dXMSzEMXDpb-62" target="2PKBjpNm0dXMSzEMXDpb-119">
          <mxGeometry relative="1" as="geometry">
            <Array as="points">
              <mxPoint x="1080.1399999999999" y="1066.8600000000001" />
              <mxPoint x="1080.1399999999999" y="1036.8600000000001" />
            </Array>
          </mxGeometry>
        </mxCell>
        <mxCell id="2PKBjpNm0dXMSzEMXDpb-151" style="edgeStyle=orthogonalEdgeStyle;rounded=0;orthogonalLoop=1;jettySize=auto;html=1;exitX=1;exitY=0.5;exitDx=0;exitDy=0;entryX=0;entryY=0.5;entryDx=0;entryDy=0;endArrow=ERzeroToMany;endFill=0;" edge="1" parent="1" source="2PKBjpNm0dXMSzEMXDpb-62" target="2PKBjpNm0dXMSzEMXDpb-72">
          <mxGeometry relative="1" as="geometry">
            <Array as="points">
              <mxPoint x="1050.1399999999999" y="1066.8600000000001" />
              <mxPoint x="1050.1399999999999" y="866.86" />
            </Array>
          </mxGeometry>
        </mxCell>
        <mxCell id="2PKBjpNm0dXMSzEMXDpb-152" style="edgeStyle=orthogonalEdgeStyle;rounded=0;orthogonalLoop=1;jettySize=auto;html=1;exitX=1;exitY=0.5;exitDx=0;exitDy=0;entryX=0;entryY=0.5;entryDx=0;entryDy=0;endArrow=ERzeroToMany;endFill=0;" edge="1" parent="1" source="2PKBjpNm0dXMSzEMXDpb-62" target="2PKBjpNm0dXMSzEMXDpb-121">
          <mxGeometry relative="1" as="geometry">
            <Array as="points">
              <mxPoint x="1020.14" y="1066.8600000000001" />
              <mxPoint x="1020.14" y="696.86" />
            </Array>
          </mxGeometry>
        </mxCell>
        <mxCell id="2PKBjpNm0dXMSzEMXDpb-153" style="edgeStyle=orthogonalEdgeStyle;rounded=0;orthogonalLoop=1;jettySize=auto;html=1;exitX=1;exitY=0.5;exitDx=0;exitDy=0;entryX=0;entryY=0.5;entryDx=0;entryDy=0;endArrow=ERzeroToMany;endFill=0;" edge="1" parent="1" source="2PKBjpNm0dXMSzEMXDpb-62" target="2PKBjpNm0dXMSzEMXDpb-28">
          <mxGeometry relative="1" as="geometry">
            <Array as="points">
              <mxPoint x="990.14" y="1066.8600000000001" />
              <mxPoint x="990.14" y="526.86" />
            </Array>
          </mxGeometry>
        </mxCell>
        <mxCell id="2PKBjpNm0dXMSzEMXDpb-154" style="edgeStyle=orthogonalEdgeStyle;rounded=0;orthogonalLoop=1;jettySize=auto;html=1;exitX=1;exitY=0.5;exitDx=0;exitDy=0;entryX=1;entryY=0.5;entryDx=0;entryDy=0;endArrow=ERone;endFill=0;startArrow=ERone;startFill=0;" edge="1" parent="1" source="2PKBjpNm0dXMSzEMXDpb-62" target="2PKBjpNm0dXMSzEMXDpb-39">
          <mxGeometry relative="1" as="geometry">
            <Array as="points">
              <mxPoint x="870.14" y="1066.8600000000001" />
              <mxPoint x="870.14" y="606.86" />
            </Array>
          </mxGeometry>
        </mxCell>
        <mxCell id="2PKBjpNm0dXMSzEMXDpb-158" style="edgeStyle=orthogonalEdgeStyle;rounded=0;orthogonalLoop=1;jettySize=auto;html=1;exitX=0;exitY=0.5;exitDx=0;exitDy=0;endArrow=ERone;endFill=0;startArrow=ERoneToMany;startFill=0;entryX=1;entryY=0.5;entryDx=0;entryDy=0;" edge="1" parent="1" source="2PKBjpNm0dXMSzEMXDpb-104" target="2PKBjpNm0dXMSzEMXDpb-6">
          <mxGeometry relative="1" as="geometry">
            <mxPoint x="460.14" y="1301.8600000000001" as="targetPoint" />
            <Array as="points">
              <mxPoint x="520.14" y="1126.8600000000001" />
              <mxPoint x="520.14" y="1336.8600000000001" />
            </Array>
          </mxGeometry>
        </mxCell>
        <mxCell id="2PKBjpNm0dXMSzEMXDpb-161" style="edgeStyle=orthogonalEdgeStyle;rounded=0;orthogonalLoop=1;jettySize=auto;html=1;exitX=0;exitY=0.5;exitDx=0;exitDy=0;endArrow=ERone;endFill=0;startArrow=ERone;startFill=0;entryX=1;entryY=0.5;entryDx=0;entryDy=0;" edge="1" parent="1" source="2PKBjpNm0dXMSzEMXDpb-34" target="2PKBjpNm0dXMSzEMXDpb-12">
          <mxGeometry relative="1" as="geometry">
            <mxPoint x="462.14" y="1201.8600000000001" as="targetPoint" />
            <Array as="points">
              <mxPoint x="550.14" y="946.86" />
              <mxPoint x="550.14" y="961.86" />
              <mxPoint x="460.14" y="961.86" />
              <mxPoint x="460.14" y="1201.8600000000001" />
            </Array>
          </mxGeometry>
        </mxCell>
        <mxCell id="2PKBjpNm0dXMSzEMXDpb-162" style="edgeStyle=orthogonalEdgeStyle;rounded=0;orthogonalLoop=1;jettySize=auto;html=1;exitX=1;exitY=0.5;exitDx=0;exitDy=0;entryX=1;entryY=0.5;entryDx=0;entryDy=0;endArrow=ERone;endFill=0;startArrow=ERone;startFill=0;" edge="1" parent="1" source="2PKBjpNm0dXMSzEMXDpb-34" target="2PKBjpNm0dXMSzEMXDpb-56">
          <mxGeometry relative="1" as="geometry" />
        </mxCell>
        <mxCell id="2PKBjpNm0dXMSzEMXDpb-173" value="artist_user" style="swimlane;fontStyle=0;childLayout=stackLayout;horizontal=1;startSize=30;horizontalStack=0;resizeParent=1;resizeParentMax=0;resizeLast=0;collapsible=1;marginBottom=0;whiteSpace=wrap;html=1;" vertex="1" parent="1">
          <mxGeometry x="1160.1399999999999" y="281.86" width="200" height="120" as="geometry" />
        </mxCell>
        <mxCell id="2PKBjpNm0dXMSzEMXDpb-174" value="key ID: uuid" style="text;strokeColor=none;fillColor=none;align=left;verticalAlign=middle;spacingLeft=4;spacingRight=4;overflow=hidden;points=[[0,0.5],[1,0.5]];portConstraint=eastwest;rotatable=0;whiteSpace=wrap;html=1;" vertex="1" parent="2PKBjpNm0dXMSzEMXDpb-173">
          <mxGeometry y="30" width="200" height="30" as="geometry" />
        </mxCell>
        <mxCell id="2PKBjpNm0dXMSzEMXDpb-175" value="#user_id: uuid" style="text;strokeColor=none;fillColor=none;align=left;verticalAlign=middle;spacingLeft=4;spacingRight=4;overflow=hidden;points=[[0,0.5],[1,0.5]];portConstraint=eastwest;rotatable=0;whiteSpace=wrap;html=1;" vertex="1" parent="2PKBjpNm0dXMSzEMXDpb-173">
          <mxGeometry y="60" width="200" height="30" as="geometry" />
        </mxCell>
        <mxCell id="2PKBjpNm0dXMSzEMXDpb-177" value="#artist_id: uuid" style="text;strokeColor=none;fillColor=none;align=left;verticalAlign=middle;spacingLeft=4;spacingRight=4;overflow=hidden;points=[[0,0.5],[1,0.5]];portConstraint=eastwest;rotatable=0;whiteSpace=wrap;html=1;" vertex="1" parent="2PKBjpNm0dXMSzEMXDpb-173">
          <mxGeometry y="90" width="200" height="30" as="geometry" />
        </mxCell>
        <mxCell id="2PKBjpNm0dXMSzEMXDpb-178" style="edgeStyle=orthogonalEdgeStyle;rounded=0;orthogonalLoop=1;jettySize=auto;html=1;exitX=0;exitY=0.5;exitDx=0;exitDy=0;entryX=1;entryY=0.5;entryDx=0;entryDy=0;endArrow=ERzeroToMany;endFill=0;startArrow=ERmandOne;startFill=0;" edge="1" parent="1" source="2PKBjpNm0dXMSzEMXDpb-90" target="2PKBjpNm0dXMSzEMXDpb-175">
          <mxGeometry relative="1" as="geometry">
            <Array as="points">
              <mxPoint x="1590.1399999999999" y="1126.8600000000001" />
              <mxPoint x="1590.1399999999999" y="356.86" />
            </Array>
          </mxGeometry>
        </mxCell>
        <mxCell id="2PKBjpNm0dXMSzEMXDpb-179" style="edgeStyle=orthogonalEdgeStyle;rounded=0;orthogonalLoop=1;jettySize=auto;html=1;exitX=0;exitY=0.5;exitDx=0;exitDy=0;entryX=0;entryY=0.5;entryDx=0;entryDy=0;endArrow=ERone;endFill=0;" edge="1" parent="1" source="2PKBjpNm0dXMSzEMXDpb-10" target="2PKBjpNm0dXMSzEMXDpb-8">
          <mxGeometry relative="1" as="geometry">
            <Array as="points">
              <mxPoint x="120.13999999999999" y="1141.8600000000001" />
              <mxPoint x="120.13999999999999" y="1396.8600000000001" />
            </Array>
          </mxGeometry>
        </mxCell>
        <mxCell id="2PKBjpNm0dXMSzEMXDpb-181" style="edgeStyle=orthogonalEdgeStyle;rounded=0;orthogonalLoop=1;jettySize=auto;html=1;exitX=0;exitY=0.5;exitDx=0;exitDy=0;entryX=1;entryY=0.5;entryDx=0;entryDy=0;endArrow=ERone;endFill=0;startArrow=ERone;startFill=0;" edge="1" parent="1" source="2PKBjpNm0dXMSzEMXDpb-34" target="2PKBjpNm0dXMSzEMXDpb-163">
          <mxGeometry relative="1" as="geometry">
            <Array as="points">
              <mxPoint x="430.14" y="946.86" />
              <mxPoint x="430.14" y="1026.8600000000001" />
            </Array>
          </mxGeometry>
        </mxCell>
        <mxCell id="2PKBjpNm0dXMSzEMXDpb-182" style="edgeStyle=orthogonalEdgeStyle;rounded=0;orthogonalLoop=1;jettySize=auto;html=1;exitX=0;exitY=0.5;exitDx=0;exitDy=0;entryX=0;entryY=0.5;entryDx=0;entryDy=0;endArrow=ERzeroToMany;endFill=0;" edge="1" parent="1" source="2PKBjpNm0dXMSzEMXDpb-10" target="2PKBjpNm0dXMSzEMXDpb-177">
          <mxGeometry relative="1" as="geometry">
            <Array as="points">
              <mxPoint x="40.139999999999986" y="1141.8600000000001" />
              <mxPoint x="40.139999999999986" y="191.86" />
              <mxPoint x="990.14" y="191.86" />
              <mxPoint x="990.14" y="386.86" />
            </Array>
          </mxGeometry>
        </mxCell>
        <mxCell id="2PKBjpNm0dXMSzEMXDpb-183" value="playlist_track" style="swimlane;fontStyle=0;childLayout=stackLayout;horizontal=1;startSize=30;horizontalStack=0;resizeParent=1;resizeParentMax=0;resizeLast=0;collapsible=1;marginBottom=0;whiteSpace=wrap;html=1;" vertex="1" parent="1">
          <mxGeometry x="1160.1399999999999" y="1271.8600000000001" width="200" height="120" as="geometry" />
        </mxCell>
        <mxCell id="2PKBjpNm0dXMSzEMXDpb-184" value="key ID: uuid" style="text;strokeColor=none;fillColor=none;align=left;verticalAlign=middle;spacingLeft=4;spacingRight=4;overflow=hidden;points=[[0,0.5],[1,0.5]];portConstraint=eastwest;rotatable=0;whiteSpace=wrap;html=1;" vertex="1" parent="2PKBjpNm0dXMSzEMXDpb-183">
          <mxGeometry y="30" width="200" height="30" as="geometry" />
        </mxCell>
        <mxCell id="2PKBjpNm0dXMSzEMXDpb-185" value="#playlist_id: uuid" style="text;strokeColor=none;fillColor=none;align=left;verticalAlign=middle;spacingLeft=4;spacingRight=4;overflow=hidden;points=[[0,0.5],[1,0.5]];portConstraint=eastwest;rotatable=0;whiteSpace=wrap;html=1;" vertex="1" parent="2PKBjpNm0dXMSzEMXDpb-183">
          <mxGeometry y="60" width="200" height="30" as="geometry" />
        </mxCell>
        <mxCell id="2PKBjpNm0dXMSzEMXDpb-186" value="#track_id: uuid" style="text;strokeColor=none;fillColor=none;align=left;verticalAlign=middle;spacingLeft=4;spacingRight=4;overflow=hidden;points=[[0,0.5],[1,0.5]];portConstraint=eastwest;rotatable=0;whiteSpace=wrap;html=1;" vertex="1" parent="2PKBjpNm0dXMSzEMXDpb-183">
          <mxGeometry y="90" width="200" height="30" as="geometry" />
        </mxCell>
        <mxCell id="2PKBjpNm0dXMSzEMXDpb-187" style="edgeStyle=orthogonalEdgeStyle;rounded=0;orthogonalLoop=1;jettySize=auto;html=1;exitX=1;exitY=0.5;exitDx=0;exitDy=0;entryX=1;entryY=0.5;entryDx=0;entryDy=0;endArrow=ERoneToMany;endFill=0;startArrow=ERone;startFill=0;" edge="1" parent="1" source="2PKBjpNm0dXMSzEMXDpb-86" target="2PKBjpNm0dXMSzEMXDpb-185">
          <mxGeometry relative="1" as="geometry">
            <Array as="points">
              <mxPoint x="2310" y="567" />
              <mxPoint x="2310" y="1347" />
            </Array>
          </mxGeometry>
        </mxCell>
        <mxCell id="2PKBjpNm0dXMSzEMXDpb-188" style="edgeStyle=orthogonalEdgeStyle;rounded=0;orthogonalLoop=1;jettySize=auto;html=1;exitX=1;exitY=0.5;exitDx=0;exitDy=0;entryX=0;entryY=0.5;entryDx=0;entryDy=0;endArrow=ERoneToMany;endFill=0;startArrow=ERone;startFill=0;" edge="1" parent="1" source="2PKBjpNm0dXMSzEMXDpb-62" target="2PKBjpNm0dXMSzEMXDpb-186">
          <mxGeometry relative="1" as="geometry">
            <Array as="points">
              <mxPoint x="820.14" y="1066.8600000000001" />
              <mxPoint x="820.14" y="1376.8600000000001" />
            </Array>
          </mxGeometry>
        </mxCell>
        <mxCell id="2PKBjpNm0dXMSzEMXDpb-190" style="edgeStyle=orthogonalEdgeStyle;rounded=0;orthogonalLoop=1;jettySize=auto;html=1;exitX=1;exitY=0.5;exitDx=0;exitDy=0;entryX=1;entryY=0.5;entryDx=0;entryDy=0;endArrow=ERmandOne;endFill=0;startArrow=ERmandOne;startFill=0;" edge="1" parent="1" source="2PKBjpNm0dXMSzEMXDpb-80" target="2PKBjpNm0dXMSzEMXDpb-58">
          <mxGeometry relative="1" as="geometry">
            <Array as="points">
              <mxPoint x="2320" y="367" />
              <mxPoint x="2320" y="771" />
            </Array>
          </mxGeometry>
        </mxCell>
        <mxCell id="2PKBjpNm0dXMSzEMXDpb-191" value="track_artist" style="swimlane;fontStyle=0;childLayout=stackLayout;horizontal=1;startSize=30;horizontalStack=0;resizeParent=1;resizeParentMax=0;resizeLast=0;collapsible=1;marginBottom=0;whiteSpace=wrap;html=1;" vertex="1" parent="1">
          <mxGeometry x="572.14" y="1211.8600000000001" width="180" height="120" as="geometry" />
        </mxCell>
        <mxCell id="2PKBjpNm0dXMSzEMXDpb-192" value="key ID: uuid" style="text;strokeColor=none;fillColor=none;align=left;verticalAlign=middle;spacingLeft=4;spacingRight=4;overflow=hidden;points=[[0,0.5],[1,0.5]];portConstraint=eastwest;rotatable=0;whiteSpace=wrap;html=1;" vertex="1" parent="2PKBjpNm0dXMSzEMXDpb-191">
          <mxGeometry y="30" width="180" height="30" as="geometry" />
        </mxCell>
        <mxCell id="2PKBjpNm0dXMSzEMXDpb-197" value="#track_id: uuid" style="text;strokeColor=none;fillColor=none;align=left;verticalAlign=middle;spacingLeft=4;spacingRight=4;overflow=hidden;points=[[0,0.5],[1,0.5]];portConstraint=eastwest;rotatable=0;whiteSpace=wrap;html=1;" vertex="1" parent="2PKBjpNm0dXMSzEMXDpb-191">
          <mxGeometry y="60" width="180" height="30" as="geometry" />
        </mxCell>
        <mxCell id="2PKBjpNm0dXMSzEMXDpb-194" value="#artist_id: uuid" style="text;strokeColor=none;fillColor=none;align=left;verticalAlign=middle;spacingLeft=4;spacingRight=4;overflow=hidden;points=[[0,0.5],[1,0.5]];portConstraint=eastwest;rotatable=0;whiteSpace=wrap;html=1;" vertex="1" parent="2PKBjpNm0dXMSzEMXDpb-191">
          <mxGeometry y="90" width="180" height="30" as="geometry" />
        </mxCell>
        <mxCell id="2PKBjpNm0dXMSzEMXDpb-198" style="edgeStyle=orthogonalEdgeStyle;rounded=0;orthogonalLoop=1;jettySize=auto;html=1;exitX=1;exitY=0.5;exitDx=0;exitDy=0;endArrow=ERzeroToMany;endFill=0;startArrow=ERone;startFill=0;entryX=0;entryY=0.5;entryDx=0;entryDy=0;" edge="1" parent="1" source="2PKBjpNm0dXMSzEMXDpb-10" target="2PKBjpNm0dXMSzEMXDpb-194">
          <mxGeometry relative="1" as="geometry">
            <mxPoint x="572.14" y="1301.8600000000001" as="targetPoint" />
            <Array as="points">
              <mxPoint x="380.14" y="1141.8600000000001" />
              <mxPoint x="380.14" y="1251.8600000000001" />
              <mxPoint x="550.14" y="1251.8600000000001" />
              <mxPoint x="550.14" y="1316.8600000000001" />
            </Array>
          </mxGeometry>
        </mxCell>
        <mxCell id="2PKBjpNm0dXMSzEMXDpb-199" style="edgeStyle=orthogonalEdgeStyle;rounded=0;orthogonalLoop=1;jettySize=auto;html=1;exitX=1;exitY=0.5;exitDx=0;exitDy=0;entryX=1;entryY=0.5;entryDx=0;entryDy=0;endArrow=ERzeroToMany;endFill=0;" edge="1" parent="1" source="2PKBjpNm0dXMSzEMXDpb-62" target="2PKBjpNm0dXMSzEMXDpb-197">
          <mxGeometry relative="1" as="geometry">
            <Array as="points">
              <mxPoint x="780.14" y="1066.8600000000001" />
              <mxPoint x="780.14" y="1286.8600000000001" />
            </Array>
          </mxGeometry>
        </mxCell>
        <mxCell id="2PKBjpNm0dXMSzEMXDpb-201" value="track_genre" style="swimlane;fontStyle=0;childLayout=stackLayout;horizontal=1;startSize=30;horizontalStack=0;resizeParent=1;resizeParentMax=0;resizeLast=0;collapsible=1;marginBottom=0;whiteSpace=wrap;html=1;" vertex="1" parent="1">
          <mxGeometry x="572.14" y="1341.8600000000001" width="180" height="120" as="geometry" />
        </mxCell>
        <mxCell id="2PKBjpNm0dXMSzEMXDpb-202" value="key ID: uuid" style="text;strokeColor=none;fillColor=none;align=left;verticalAlign=middle;spacingLeft=4;spacingRight=4;overflow=hidden;points=[[0,0.5],[1,0.5]];portConstraint=eastwest;rotatable=0;whiteSpace=wrap;html=1;" vertex="1" parent="2PKBjpNm0dXMSzEMXDpb-201">
          <mxGeometry y="30" width="180" height="30" as="geometry" />
        </mxCell>
        <mxCell id="2PKBjpNm0dXMSzEMXDpb-203" value="#track_id: uuid" style="text;strokeColor=none;fillColor=none;align=left;verticalAlign=middle;spacingLeft=4;spacingRight=4;overflow=hidden;points=[[0,0.5],[1,0.5]];portConstraint=eastwest;rotatable=0;whiteSpace=wrap;html=1;" vertex="1" parent="2PKBjpNm0dXMSzEMXDpb-201">
          <mxGeometry y="60" width="180" height="30" as="geometry" />
        </mxCell>
        <mxCell id="2PKBjpNm0dXMSzEMXDpb-204" value="#genre_id: uuid" style="text;strokeColor=none;fillColor=none;align=left;verticalAlign=middle;spacingLeft=4;spacingRight=4;overflow=hidden;points=[[0,0.5],[1,0.5]];portConstraint=eastwest;rotatable=0;whiteSpace=wrap;html=1;" vertex="1" parent="2PKBjpNm0dXMSzEMXDpb-201">
          <mxGeometry y="90" width="180" height="30" as="geometry" />
        </mxCell>
        <mxCell id="2PKBjpNm0dXMSzEMXDpb-205" style="edgeStyle=orthogonalEdgeStyle;rounded=0;orthogonalLoop=1;jettySize=auto;html=1;exitX=1;exitY=0.5;exitDx=0;exitDy=0;entryX=1;entryY=0.5;entryDx=0;entryDy=0;endArrow=ERoneToMany;endFill=0;" edge="1" parent="1" source="2PKBjpNm0dXMSzEMXDpb-62" target="2PKBjpNm0dXMSzEMXDpb-203">
          <mxGeometry relative="1" as="geometry">
            <Array as="points">
              <mxPoint x="800.14" y="1066.8600000000001" />
              <mxPoint x="800.14" y="1416.8600000000001" />
            </Array>
          </mxGeometry>
        </mxCell>
        <mxCell id="2PKBjpNm0dXMSzEMXDpb-206" style="edgeStyle=orthogonalEdgeStyle;rounded=0;orthogonalLoop=1;jettySize=auto;html=1;exitX=0;exitY=0.5;exitDx=0;exitDy=0;entryX=0;entryY=0.5;entryDx=0;entryDy=0;endArrow=ERoneToMany;endFill=0;" edge="1" parent="1" source="2PKBjpNm0dXMSzEMXDpb-34" target="2PKBjpNm0dXMSzEMXDpb-204">
          <mxGeometry relative="1" as="geometry">
            <Array as="points">
              <mxPoint x="550.14" y="946.86" />
              <mxPoint x="550.14" y="971.86" />
              <mxPoint x="490.14" y="971.86" />
              <mxPoint x="490.14" y="1446.8600000000001" />
            </Array>
          </mxGeometry>
        </mxCell>
        <mxCell id="2PKBjpNm0dXMSzEMXDpb-207" value="podcast_artist" style="swimlane;fontStyle=0;childLayout=stackLayout;horizontal=1;startSize=30;horizontalStack=0;resizeParent=1;resizeParentMax=0;resizeLast=0;collapsible=1;marginBottom=0;whiteSpace=wrap;html=1;" vertex="1" parent="1">
          <mxGeometry x="142.14" y="751.86" width="180" height="120" as="geometry" />
        </mxCell>
        <mxCell id="2PKBjpNm0dXMSzEMXDpb-208" value="key ID: uuid" style="text;strokeColor=none;fillColor=none;align=left;verticalAlign=middle;spacingLeft=4;spacingRight=4;overflow=hidden;points=[[0,0.5],[1,0.5]];portConstraint=eastwest;rotatable=0;whiteSpace=wrap;html=1;" vertex="1" parent="2PKBjpNm0dXMSzEMXDpb-207">
          <mxGeometry y="30" width="180" height="30" as="geometry" />
        </mxCell>
        <mxCell id="2PKBjpNm0dXMSzEMXDpb-209" value="#podcast_id: uuid" style="text;strokeColor=none;fillColor=none;align=left;verticalAlign=middle;spacingLeft=4;spacingRight=4;overflow=hidden;points=[[0,0.5],[1,0.5]];portConstraint=eastwest;rotatable=0;whiteSpace=wrap;html=1;" vertex="1" parent="2PKBjpNm0dXMSzEMXDpb-207">
          <mxGeometry y="60" width="180" height="30" as="geometry" />
        </mxCell>
        <mxCell id="2PKBjpNm0dXMSzEMXDpb-210" value="#artist_id: uuid" style="text;strokeColor=none;fillColor=none;align=left;verticalAlign=middle;spacingLeft=4;spacingRight=4;overflow=hidden;points=[[0,0.5],[1,0.5]];portConstraint=eastwest;rotatable=0;whiteSpace=wrap;html=1;" vertex="1" parent="2PKBjpNm0dXMSzEMXDpb-207">
          <mxGeometry y="90" width="180" height="30" as="geometry" />
        </mxCell>
        <mxCell id="2PKBjpNm0dXMSzEMXDpb-211" style="edgeStyle=orthogonalEdgeStyle;rounded=0;orthogonalLoop=1;jettySize=auto;html=1;exitX=0;exitY=0.5;exitDx=0;exitDy=0;entryX=0;entryY=0.5;entryDx=0;entryDy=0;endArrow=ERoneToMany;endFill=0;startArrow=ERone;startFill=0;" edge="1" parent="1" source="2PKBjpNm0dXMSzEMXDpb-10" target="2PKBjpNm0dXMSzEMXDpb-210">
          <mxGeometry relative="1" as="geometry">
            <Array as="points">
              <mxPoint x="100.13999999999999" y="1141.8600000000001" />
              <mxPoint x="100.13999999999999" y="856.86" />
            </Array>
          </mxGeometry>
        </mxCell>
        <mxCell id="2PKBjpNm0dXMSzEMXDpb-212" style="edgeStyle=orthogonalEdgeStyle;rounded=0;orthogonalLoop=1;jettySize=auto;html=1;exitX=1;exitY=0.5;exitDx=0;exitDy=0;entryX=1;entryY=0.5;entryDx=0;entryDy=0;startArrow=ERoneToMany;startFill=0;endArrow=ERone;endFill=0;" edge="1" parent="1" source="2PKBjpNm0dXMSzEMXDpb-209" target="2PKBjpNm0dXMSzEMXDpb-98">
          <mxGeometry relative="1" as="geometry" />
        </mxCell>
        <mxCell id="2PKBjpNm0dXMSzEMXDpb-214" value="chart_track" style="swimlane;fontStyle=0;childLayout=stackLayout;horizontal=1;startSize=30;horizontalStack=0;resizeParent=1;resizeParentMax=0;resizeLast=0;collapsible=1;marginBottom=0;whiteSpace=wrap;html=1;" vertex="1" parent="1">
          <mxGeometry x="571.14" y="251.86" width="180" height="120" as="geometry" />
        </mxCell>
        <mxCell id="2PKBjpNm0dXMSzEMXDpb-215" value="key ID: uuid" style="text;strokeColor=none;fillColor=none;align=left;verticalAlign=middle;spacingLeft=4;spacingRight=4;overflow=hidden;points=[[0,0.5],[1,0.5]];portConstraint=eastwest;rotatable=0;whiteSpace=wrap;html=1;" vertex="1" parent="2PKBjpNm0dXMSzEMXDpb-214">
          <mxGeometry y="30" width="180" height="30" as="geometry" />
        </mxCell>
        <mxCell id="2PKBjpNm0dXMSzEMXDpb-216" value="#track_id: uuid" style="text;strokeColor=none;fillColor=none;align=left;verticalAlign=middle;spacingLeft=4;spacingRight=4;overflow=hidden;points=[[0,0.5],[1,0.5]];portConstraint=eastwest;rotatable=0;whiteSpace=wrap;html=1;" vertex="1" parent="2PKBjpNm0dXMSzEMXDpb-214">
          <mxGeometry y="60" width="180" height="30" as="geometry" />
        </mxCell>
        <mxCell id="2PKBjpNm0dXMSzEMXDpb-217" value="#chart_id: uuid" style="text;strokeColor=none;fillColor=none;align=left;verticalAlign=middle;spacingLeft=4;spacingRight=4;overflow=hidden;points=[[0,0.5],[1,0.5]];portConstraint=eastwest;rotatable=0;whiteSpace=wrap;html=1;" vertex="1" parent="2PKBjpNm0dXMSzEMXDpb-214">
          <mxGeometry y="90" width="180" height="30" as="geometry" />
        </mxCell>
        <mxCell id="2PKBjpNm0dXMSzEMXDpb-219" style="edgeStyle=orthogonalEdgeStyle;rounded=0;orthogonalLoop=1;jettySize=auto;html=1;exitX=0;exitY=0.5;exitDx=0;exitDy=0;entryX=0;entryY=0.5;entryDx=0;entryDy=0;startArrow=ERone;startFill=0;endArrow=ERoneToMany;endFill=0;" edge="1" parent="1" source="2PKBjpNm0dXMSzEMXDpb-14" target="2PKBjpNm0dXMSzEMXDpb-217">
          <mxGeometry relative="1" as="geometry" />
        </mxCell>
        <mxCell id="2PKBjpNm0dXMSzEMXDpb-220" style="edgeStyle=orthogonalEdgeStyle;rounded=0;orthogonalLoop=1;jettySize=auto;html=1;exitX=1;exitY=0.5;exitDx=0;exitDy=0;entryX=1;entryY=0.5;entryDx=0;entryDy=0;endArrow=ERoneToMany;endFill=0;" edge="1" parent="1" source="2PKBjpNm0dXMSzEMXDpb-62" target="2PKBjpNm0dXMSzEMXDpb-216">
          <mxGeometry relative="1" as="geometry">
            <Array as="points">
              <mxPoint x="890.14" y="1066.8600000000001" />
              <mxPoint x="890.14" y="326.86" />
            </Array>
          </mxGeometry>
        </mxCell>
      </root>
    </mxGraphModel>
  </diagram>
</mxfile>
